<?xml version="1.0" encoding="utf-8"?>
<!-- Generator: Adobe Illustrator 22.1.0, SVG Export Plug-In . SVG Version: 6.00 Build 0)  -->
<svg xmlns="http://www.w3.org/2000/svg" xmlns:xlink="http://www.w3.org/1999/xlink" version="1.1" id="Layer_1" x="0px" y="0px" viewBox="0 0 256 256" style="enable-background:new 0 0 256 256;" xml:space="preserve" width="512" height="512">
<style type="text/css">
	.st0{fill:#F9CFCF;}
	.st1{fill:#3762CC;}
	.st2{fill:#F9A7A7;}
	.st3{fill:#E0EBFC;}
	.st4{fill:#4671C6;}
	.st5{fill:#6BDDDD;}
	.st6{fill:#FFEA92;}
	.st7{fill:#A4C9FF;}
	.st8{fill:#EAA97D;}
	.st9{fill:#B9BEFC;}
</style>
<g>
	<g>
		<g>
			<g>
				<path class="st2" d="M184.01,47.982h-14.5h-12h-29v119h29h12h39.75c16.154,0,29.25-13.096,29.25-29.25v-35.25      C238.51,72.383,214.11,47.982,184.01,47.982z"/>
			</g>
		</g>
		<g>
			<g>
				<path class="st1" d="M209.26,168.982h-80.75c-1.104,0-2-0.896-2-2v-119c0-1.104,0.896-2,2-2h55.5      c31.154,0,56.5,25.346,56.5,56.5v35.25C240.51,154.964,226.492,168.982,209.26,168.982z M130.51,164.982h78.75      c15.026,0,27.25-12.224,27.25-27.25v-35.25c0-28.949-23.551-52.5-52.5-52.5h-53.5V164.982z"/>
			</g>
		</g>
	</g>
	<g>
		<g>
			<g>
				<path class="st2" d="M67.078,47.982h14.5h12h29v119h-29h-12h-39.75c-16.154,0-29.25-13.096-29.25-29.25v-35.25      C12.578,72.383,36.979,47.982,67.078,47.982z"/>
			</g>
		</g>
		<g>
			<g>
				<path class="st1" d="M122.578,168.982h-80.75c-17.231,0-31.25-14.019-31.25-31.25v-35.25c0-31.154,25.346-56.5,56.5-56.5h55.5      c1.104,0,2,0.896,2,2v119C124.578,168.087,123.683,168.982,122.578,168.982z M67.078,49.982c-28.949,0-52.5,23.551-52.5,52.5      v35.25c0,15.026,12.224,27.25,27.25,27.25h78.75v-115H67.078z"/>
			</g>
		</g>
	</g>
	<g>
		<g>
			<path class="st0" d="M45.935,138.703v-25.597c0-36.234,29.373-65.607,65.607-65.607h27.764c36.234,0,65.607,29.373,65.607,65.607     v25.597c0,11.815-9.578,21.394-21.394,21.394H67.329C55.514,160.097,45.935,150.518,45.935,138.703z"/>
		</g>
	</g>
	<g>
		<g>
			<g>
				<path class="st1" d="M86.573,132.405h-2.071c-3.834,0-6.942-3.108-6.942-6.942v-10.959c0-3.834,3.108-6.942,6.942-6.942h2.071      c3.834,0,6.942,3.108,6.942,6.942v10.959C93.515,129.297,90.407,132.405,86.573,132.405z"/>
			</g>
		</g>
		<g>
			<g>
				<path class="st1" d="M166.346,132.405h-2.071c-3.834,0-6.942-3.108-6.942-6.942v-10.959c0-3.834,3.108-6.942,6.942-6.942h2.071      c3.834,0,6.942,3.108,6.942,6.942v10.959C173.288,129.297,170.18,132.405,166.346,132.405z"/>
			</g>
		</g>
	</g>
	<g>
		<g>
			<path class="st1" d="M183.519,162.097H67.329c-12.899,0-23.394-10.494-23.394-23.394v-25.597     c0-37.279,30.328-67.607,67.606-67.607h27.764c37.278,0,67.606,30.328,67.606,67.607v25.597     C206.913,151.603,196.418,162.097,183.519,162.097z M111.542,49.499c-35.073,0-63.606,28.534-63.606,63.607v25.597     c0,10.694,8.7,19.394,19.394,19.394h116.19c10.694,0,19.394-8.7,19.394-19.394v-25.597c0-35.073-28.534-63.607-63.606-63.607     H111.542z"/>
		</g>
	</g>
	<g>
		<g>
			<path class="st0" d="M30.038,178.865L30.038,178.865c0-24.874,20.165-45.039,45.039-45.039h100.695     c24.874,0,45.039,20.165,45.039,45.039v0c0,24.874-20.165,45.039-45.039,45.039H75.077     C50.202,223.904,30.038,203.739,30.038,178.865z"/>
		</g>
	</g>
	<g>
		<g>
			<path class="st3" d="M145.962,223.904h-41.075c-12.603,0-22.82-10.217-22.82-22.82v-21.919c0-12.603,10.217-22.82,22.82-22.82     h41.075c12.603,0,22.82,10.217,22.82,22.82v21.919C168.782,213.687,158.565,223.904,145.962,223.904z"/>
		</g>
	</g>
	<g>
		<g>
			<path class="st1" d="M141.528,184.64c-6.289,0-12.237-2.279-16.104-6.063c-3.867,3.784-9.815,6.063-16.104,6.063     c-11.349,0-20.582-7.211-20.582-16.075c0-1.104,0.896-2,2-2s2,0.896,2,2c0,6.658,7.438,12.075,16.582,12.075     c6.008,0,11.568-2.407,14.511-6.282c0.757-0.995,2.429-0.996,3.186,0c2.943,3.875,8.504,6.283,14.512,6.283     c9.143,0,16.582-5.417,16.582-12.075c0-1.104,0.896-2,2-2s2,0.896,2,2C162.11,177.429,152.877,184.64,141.528,184.64z"/>
		</g>
	</g>
	<g>
		<g>
			<path class="st4" d="M132.886,166.198h-14.923c-5.457,0-9.881-4.424-9.881-9.881v-3.236c0-3.638,2.949-6.587,6.588-6.587h21.511     c3.638,0,6.588,2.949,6.588,6.587v3.236C142.767,161.774,138.343,166.198,132.886,166.198z"/>
		</g>
	</g>
	<g>
		<g>
			<path class="st1" d="M175.771,225.904H75.077c-25.938,0-47.039-21.102-47.039-47.039s21.102-47.039,47.039-47.039h100.695     c25.938,0,47.039,21.102,47.039,47.039S201.709,225.904,175.771,225.904z M75.077,135.826c-23.732,0-43.039,19.307-43.039,43.039     s19.307,43.039,43.039,43.039h100.695c23.732,0,43.039-19.307,43.039-43.039s-19.307-43.039-43.039-43.039H75.077z"/>
		</g>
	</g>
	<g>
		<g>
			<path class="st5" d="M187.143,80.129l-5.218-7.967c-0.958-1.464-0.549-3.427,0.915-4.386c1.464-0.959,3.427-0.549,4.386,0.914     l8.939,13.648c2.85,0.285,5.655,0.189,8.329-0.266l0,0l0.009-0.002c0.002,0,0.005-0.001,0.007-0.001l10.667-1.735l-5.193-7.929     c-0.958-1.464-0.549-3.427,0.915-4.386c1.464-0.959,3.427-0.549,4.386,0.914l6.738,10.287l19.349-3.148     c0.974-0.158,1.648-0.741,1.922-1.473c0.268-0.734,0.135-1.615-0.501-2.369l-12.644-14.98l-11.81,3.428     c-1.68,0.488-3.438-0.479-3.925-2.159c-0.488-1.68,0.479-3.438,2.159-3.926l9.103-2.642l-6.971-8.258     c-0.002-0.002-0.003-0.004-0.005-0.005l-0.006-0.007l0,0c-1.735-2.085-3.802-3.984-6.152-5.622l-15.668,4.548     c-1.68,0.488-3.438-0.479-3.925-2.159c-0.488-1.68,0.479-3.438,2.159-3.926l9.147-2.655     c-13.921-4.768-29.023,0.382-34.301,11.865c-0.045,0.099-0.095,0.194-0.139,0.294c-0.127,0.289-0.24,0.58-0.353,0.871     c-0.045,0.116-0.096,0.228-0.139,0.345c-0.043,0.117-0.078,0.235-0.119,0.352c-0.103,0.295-0.207,0.589-0.298,0.891     c-0.031,0.104-0.055,0.209-0.085,0.314C165.352,60.955,173.469,74.692,187.143,80.129z"/>
		</g>
	</g>
	<g>
		<g>
			<path class="st1" d="M199.376,84.5c-1.131,0-2.27-0.057-3.412-0.171c-0.601-0.061-1.143-0.389-1.474-0.895l-8.938-13.648     c-0.352-0.539-1.079-0.69-1.617-0.337c-0.261,0.17-0.439,0.433-0.503,0.738c-0.063,0.306-0.004,0.618,0.166,0.878l5.218,7.967     c0.478,0.729,0.428,1.685-0.124,2.36c-0.552,0.676-1.478,0.917-2.288,0.594c-14.669-5.833-23.24-20.651-19.511-33.736     l0.093-0.341c0.094-0.312,0.199-0.613,0.305-0.915l0.062-0.182c0.028-0.087,0.057-0.174,0.088-0.26     c0.037-0.099,0.073-0.186,0.109-0.272l0.044-0.107c0.134-0.344,0.254-0.651,0.388-0.956l0.108-0.229     c0.001-0.002,0.042-0.089,0.043-0.091c5.683-12.361,21.831-18.039,36.767-12.922c0.825,0.283,1.372,1.067,1.352,1.939     c-0.021,0.872-0.604,1.63-1.442,1.874l-9.146,2.655c-0.3,0.087-0.547,0.285-0.698,0.559s-0.186,0.589-0.098,0.888     c0.179,0.618,0.829,0.975,1.447,0.796l15.667-4.548c0.581-0.168,1.206-0.065,1.701,0.28c2.471,1.722,4.667,3.729,6.531,5.965     c0.001,0.002,0.003,0.003,0.004,0.005l0,0c0.006,0.007,0.012,0.014,0.019,0.021l6.964,8.251c0.437,0.518,0.582,1.221,0.386,1.869     c-0.196,0.648-0.707,1.153-1.357,1.342l-9.103,2.642c-0.619,0.179-0.976,0.829-0.796,1.447c0.179,0.619,0.83,0.978,1.447,0.796     l11.81-3.428c0.758-0.218,1.576,0.027,2.086,0.631l12.645,14.98c1.066,1.262,1.385,2.887,0.852,4.345     c-0.55,1.469-1.848,2.495-3.479,2.761l-19.349,3.148c-0.777,0.13-1.562-0.218-1.994-0.878l-6.738-10.288     c-0.17-0.261-0.433-0.439-0.738-0.503c-0.303-0.062-0.616-0.004-0.878,0.167c-0.539,0.353-0.69,1.079-0.337,1.617l5.193,7.929     c0.371,0.566,0.431,1.282,0.158,1.902s-0.841,1.059-1.509,1.168l-10.637,1.73c-0.015,0.003-0.031,0.005-0.046,0.008     C203.039,84.349,201.218,84.5,199.376,84.5z M197.303,80.428c2.327,0.161,4.628,0.051,6.854-0.327     c0.03-0.005,0.06-0.009,0.09-0.013l7.568-1.232l-3.506-5.354c-1.561-2.384-0.892-5.593,1.492-7.154     c1.154-0.757,2.535-1.019,3.886-0.736c1.351,0.282,2.512,1.073,3.268,2.228l6.026,9.201l18.066-2.939     c0.194-0.032,0.336-0.108,0.371-0.2c0.028-0.077-0.03-0.227-0.156-0.377l-11.807-13.988l-10.562,3.066     c-1.325,0.385-2.722,0.231-3.932-0.435c-1.209-0.666-2.088-1.762-2.473-3.088c-0.793-2.737,0.787-5.609,3.523-6.404l6.146-1.784     l-4.976-5.895c-0.01-0.012-0.021-0.023-0.029-0.034c-1.443-1.735-3.12-3.315-4.992-4.708l-14.732,4.276     c-2.737,0.792-5.61-0.787-6.404-3.523c-0.385-1.326-0.23-2.722,0.435-3.931c0.666-1.209,1.762-2.087,3.087-2.473L196,34.181     c-10.495-0.821-20.335,3.907-24.233,12.389l-0.127,0.265c-0.11,0.25-0.208,0.502-0.305,0.753l-0.251,0.677     c-0.104,0.298-0.191,0.546-0.268,0.8l-0.076,0.283c-2.558,8.977,1.84,18.973,10.34,25.175l-0.829-1.266     c-0.756-1.155-1.018-2.535-0.736-3.886s1.073-2.512,2.228-3.268c2.385-1.562,5.594-0.892,7.155,1.491L197.303,80.428z"/>
		</g>
	</g>
	<g>
		<g>
			<path class="st6" d="M155.621,86.584l1.944-9.324c0.357-1.713,2.035-2.812,3.748-2.455c1.713,0.357,2.812,2.035,2.455,3.748     l-3.33,15.971c1.814,2.217,3.865,4.132,6.078,5.702l0,0l0.008,0.005c0.002,0.001,0.004,0.003,0.006,0.004l8.77,6.315l1.935-9.279     c0.357-1.713,2.035-2.812,3.748-2.455c1.713,0.357,2.812,2.035,2.455,3.748l-2.51,12.038l15.908,11.456     c0.801,0.577,1.689,0.641,2.4,0.318c0.708-0.329,1.238-1.046,1.321-2.03l1.652-19.534l-10.775-5.927     c-1.533-0.843-2.092-2.77-1.249-4.303c0.843-1.533,2.77-2.092,4.303-1.249l8.305,4.569l0.911-10.768c0-0.002,0-0.005,0-0.007     l0.001-0.009l0,0c0.248-2.701,0.129-5.505-0.375-8.325l-14.295-7.863c-1.533-0.843-2.092-2.77-1.249-4.303     c0.843-1.533,2.77-2.092,4.303-1.249l8.345,4.59c-6.472-13.215-20.792-20.252-32.645-15.864c-0.102,0.038-0.205,0.07-0.306,0.109     c-0.294,0.114-0.58,0.24-0.866,0.366c-0.114,0.05-0.229,0.093-0.342,0.145c-0.113,0.052-0.221,0.111-0.333,0.165     c-0.282,0.135-0.563,0.27-0.841,0.419c-0.096,0.051-0.187,0.109-0.282,0.162C153.771,57.617,149.797,73.071,155.621,86.584z"/>
		</g>
	</g>
	<g>
		<g>
			<path class="st1" d="M198.329,124.571c-0.923,0-1.85-0.302-2.666-0.889l-15.908-11.456c-0.641-0.462-0.95-1.258-0.789-2.031     l2.51-12.038c0.131-0.63-0.274-1.25-0.905-1.382c-0.629-0.131-1.25,0.274-1.382,0.905l-1.935,9.279     c-0.138,0.663-0.603,1.211-1.234,1.456c-0.63,0.244-1.342,0.154-1.893-0.241l-8.749-6.301c-0.014-0.009-0.027-0.019-0.04-0.028     c-2.364-1.678-4.541-3.719-6.451-6.054c-0.382-0.467-0.533-1.083-0.41-1.674l3.33-15.971c0.131-0.63-0.274-1.25-0.905-1.381     c-0.306-0.066-0.618-0.005-0.878,0.166c-0.261,0.171-0.44,0.433-0.503,0.739l-1.944,9.323c-0.178,0.854-0.889,1.494-1.757,1.582     c-0.876,0.083-1.693-0.397-2.038-1.198c-6.249-14.498-1.831-31.036,10.059-37.65c0.156-0.091,0.232-0.135,0.31-0.177     c0.284-0.152,0.57-0.291,0.856-0.429l0.167-0.082c0.085-0.043,0.17-0.086,0.258-0.126c0.089-0.042,0.176-0.078,0.264-0.114     l0.107-0.045c0.342-0.15,0.642-0.281,0.95-0.401c0.082-0.032,0.166-0.061,0.249-0.09c12.846-4.755,28.279,2.652,35.223,16.83     c0.383,0.784,0.215,1.725-0.416,2.327c-0.631,0.602-1.581,0.725-2.344,0.305l-8.345-4.59c-0.565-0.311-1.276-0.103-1.586,0.46     c-0.311,0.564-0.104,1.276,0.46,1.586l14.295,7.863c0.529,0.292,0.899,0.806,1.005,1.401c0.529,2.961,0.664,5.932,0.4,8.831     c0,0.01-0.001,0.021-0.002,0.031l-0.911,10.769c-0.057,0.675-0.452,1.275-1.048,1.595c-0.597,0.319-1.315,0.315-1.908-0.011     l-8.305-4.569c-0.565-0.311-1.276-0.104-1.586,0.46c-0.15,0.273-0.186,0.589-0.099,0.889c0.087,0.3,0.286,0.547,0.559,0.698     l10.774,5.927c0.692,0.381,1.096,1.134,1.029,1.921l-1.651,19.534c-0.139,1.646-1.062,3.02-2.47,3.675     C199.517,124.446,198.924,124.571,198.329,124.571z M183.148,109.74l14.854,10.697c0.16,0.116,0.314,0.16,0.403,0.121     c0.074-0.035,0.14-0.182,0.157-0.378l1.542-18.239l-9.636-5.3c-1.209-0.666-2.088-1.762-2.473-3.087s-0.23-2.722,0.435-3.932     c1.373-2.497,4.521-3.411,7.019-2.038l5.608,3.085l0.65-7.693c0.002-0.03,0.005-0.06,0.009-0.089     c0.196-2.279,0.125-4.545-0.207-6.809l-13.441-7.394c-2.497-1.374-3.41-4.522-2.037-7.019c1.373-2.496,4.521-3.412,7.019-2.037     l1.326,0.729c-6.836-7.999-17.141-11.615-25.896-8.375l-0.275,0.097c-0.255,0.099-0.503,0.208-0.75,0.317l-0.649,0.298     c-0.293,0.142-0.53,0.255-0.764,0.38l-0.252,0.146c-8.157,4.539-12.116,14.718-10.49,25.114l0.309-1.481     c0.282-1.352,1.073-2.512,2.228-3.269c1.155-0.756,2.535-1.017,3.887-0.736c2.789,0.582,4.585,3.324,4.004,6.114l-3.131,15.018     c1.531,1.758,3.236,3.309,5.078,4.615c0.014,0.01,0.027,0.02,0.041,0.03c0.005,0.003,0.01,0.007,0.016,0.011l6.24,4.494     l1.306-6.266c0.581-2.79,3.322-4.585,6.114-4.004c1.351,0.282,2.512,1.073,3.269,2.228c0.756,1.155,1.018,2.535,0.736,3.886     L183.148,109.74z"/>
		</g>
	</g>
	<g>
		<g>
			<circle class="st3" cx="163.544" cy="49.701" r="12"/>
		</g>
	</g>
	<g>
		<g>
			<path class="st1" d="M163.544,63.702c-7.72,0-14-6.28-14-14s6.28-14,14-14s14,6.28,14,14S171.264,63.702,163.544,63.702z      M163.544,39.702c-5.514,0-10,4.486-10,10s4.486,10,10,10s10-4.486,10-10S169.058,39.702,163.544,39.702z"/>
		</g>
	</g>
</g>
</svg>
