<svg id="Icon_Set" enable-background="new 0 0 256 256" height="512" viewBox="0 0 256 256" width="512" xmlns="http://www.w3.org/2000/svg"><path d="m119.945 33.406v51.091c0 8.242-6.691 14.944-14.944 14.944h-61.93c-7.445 0-14.19-3.017-19.07-7.908-4.892-4.881-7.908-11.625-7.908-19.07 0-2.327.291-4.579.851-6.734 2.122-8.285 8.091-15.019 15.881-18.23 3.157-1.293 6.626-2.015 10.246-2.015h5.193c1.648 0 3.135-.668 4.224-1.745v-.011c1.077-1.088 1.745-2.575 1.745-4.224v-6.098c0-15.612 12.66-28.261 28.261-28.261h9.201c15.601 0 28.25 12.649 28.25 28.261z" fill="#b76c6c"/><path d="m95.175 5.371c-13.963 1.702-24.781 13.608-24.781 28.035v6.098c0 1.648-.668 3.135-1.745 4.224v.011c-1.088 1.077-2.575 1.745-4.224 1.745h-5.193c-3.62 0-7.089.722-10.246 2.015-7.79 3.211-13.759 9.945-15.881 18.23-.56 2.155-.851 4.407-.851 6.734 0 7.445 3.017 14.19 7.908 19.07 4.881 4.892 11.625 7.908 19.07 7.908h-16.161c-7.445 0-14.19-3.017-19.07-7.908-4.892-4.881-7.908-11.625-7.908-19.07 0-2.327.291-4.579.851-6.734 2.122-8.285 8.091-15.019 15.881-18.23 3.157-1.293 6.626-2.015 10.246-2.015h5.193c1.648 0 3.135-.668 4.224-1.745v-.011c1.077-1.088 1.745-2.575 1.745-4.224v-6.098c0-15.612 12.66-28.261 28.261-28.261h9.201c1.174 0 2.338.075 3.48.226z" fill="#c98585"/><path d="m79.25 156.527v70.825h-11.675c-5.95 0-10.774 4.824-10.774 10.774v1.077c0 5.95 4.824 10.774 10.774 10.774h11.675 10.862c5.95 0 10.774-4.824 10.774-10.774v-11.852-70.825h-21.636z" fill="#b76c6c"/><path d="m62.421 99.441h-19.35c-7.445 0-14.19-3.017-19.07-7.908-4.892-4.881-7.908-11.625-7.908-19.07 0-2.327.291-4.579.851-6.734 2.122-8.285 8.091-15.019 15.881-18.23 3.157-1.293 6.626-2.015 10.246-2.015h5.193c1.648 0 3.135-.668 4.224-1.745 0-.001 30.911 25.997 9.933 55.702z" fill="#ffbb98"/><path d="m110.597 7.982c-4.607-3.65-11.254.465-10.043 6.216l23.991 81.144c.166.36.345.717.573 1.041 3.14 4.47 10.004 3.942 12.415-.976.157-.321.27-.661.372-1.004l10.703-36.118c1.412-4.764.179-9.919-3.235-13.529z" fill="#b76c6c"/><path d="m222.564 128.622c-1.01-1.01-2.06-1.99-3.15-2.93-10.55-9.15-24.28-14.71-39.26-14.71-14.87 0-28.52 5.48-39.03 14.52h-81.419v23.99c0 29.75 24.12 53.87 53.87 53.87h13.859c1.08.38 2.24.58 3.45.58h98.54c5.93 0 10.77-4.85 10.77-10.77v-22.15c0-16.511-6.75-31.521-17.63-42.4z" fill="#b76c6c"/><path d="m115.698 125.499h-55.994v-21.809c0-2.348 1.903-4.251 4.251-4.251h47.492c2.348 0 4.251 1.903 4.251 4.251z" fill="#ff4a73"/><path d="m129.739 203.358h-16.161c-29.758 0-53.871-24.113-53.871-53.871v-23.983h16.161v23.983c0 29.758 24.112 53.871 53.871 53.871z" fill="#c98585"/><path d="m80.113 99.441c-2.349 0-4.245 1.907-4.245 4.245v21.818h-16.162v-21.818c0-2.338 1.896-4.245 4.245-4.245z" fill="#f973a3"/><path d="m115.7 103.686v21.818h-16.161v-21.818c0-2.338-1.907-4.245-4.256-4.245h16.161c2.349 0 4.256 1.907 4.256 4.245z" fill="#ea2a6a"/><path d="m40.162 91.532c-4.892-4.881-7.908-11.625-7.908-19.07 0-2.327.291-4.579.851-6.734 2.122-8.285 8.091-15.019 15.881-18.23 1.821-.743 3.749-1.304 5.753-1.627-1.368-1.39-2.252-2.133-2.252-2.133-1.088 1.077-2.575 1.745-4.224 1.745h-5.193c-3.62 0-7.089.722-10.246 2.015-7.79 3.211-13.759 9.945-15.881 18.23-.56 2.155-.851 4.407-.851 6.734 0 7.445 3.017 14.19 7.908 19.07 4.881 4.892 11.625 7.908 19.07 7.908h16.161c-7.444.001-14.188-3.016-19.069-7.908z" fill="#ffcaa6"/><path d="m139.166 90.143-1.261 4.256c-.097.345-.215.69-.377 1.013-2.403 4.913-9.266 5.441-12.412.97-.226-.323-.409-.679-.571-1.034l-23.994-81.151c-1.207-5.753 5.441-9.858 10.042-6.217l6.227 6.583z" fill="#c98585"/><path d="m36.972 53.191v2.015c0 6.606-5.357 11.957-11.957 11.957h-2.415c-2.051 0-3.976-.514-5.662-1.429 2.128-8.286 8.095-15.03 15.89-18.234 2.404.777 4.144 3.024 4.144 5.691z" fill="#b76c6c"/><path d="m82.839 249.978h-15.268c-5.947 0-10.774-4.827-10.774-10.774v-1.077c0-5.947 4.827-10.774 10.774-10.774h15.267c-5.947 0-10.774 4.827-10.774 10.774v1.077c0 5.947 4.827 10.774 10.775 10.774z" fill="#c98585"/><path d="m224.434 248.582c-1.57 1.55-3.66 2.57-5.97 2.81-.72.103-19.18.056-19.69.03-2.035 0-5.145-1.311-6.62-3.08-4.931-5.134-3.769-16.525 5.34-19.13l.09-25.27h21.64l-.1 25.21c10.03 2.673 10.043 15.482 5.31 19.43z" fill="#b76c6c"/><path d="m161.954 251.391c-.793.113-19.574.075-20.1 0-11.406-1.16-12.524-18.85-.88-22.18l.09-25.27h21.64l-.09 25.21c.28.07.56.15.83.24.07.02.13.05.19.07 10.567 3.838 9.53 20.786-1.68 21.93z" fill="#b76c6c"/><path d="m187.664 111.452c-11.94 1.5-22.82 6.55-31.54 14.05-12.84 11.03-21.01 27.37-21.01 45.52v22.15c0 4.71 3.07 8.75 7.32 10.19 1.08.38 2.24.58 3.45.58h-15c-1.21 0-2.37-.2-3.45-.58-4.25-1.44-7.32-5.48-7.32-10.19v-22.15c0-18.15 8.17-34.49 21.01-45.52 10.51-9.04 24.16-14.52 39.03-14.52 2.54-.001 5.05.159 7.51.47z" fill="#c98585"/><path d="m240.194 171.021v22.15c0 5.92-4.84 10.77-10.77 10.77h-15c5.93 0 10.77-4.85 10.77-10.77v-22.15c0-16.51-6.75-31.52-17.63-42.4-1.01-1.01-2.06-1.99-3.15-2.93-8.76-7.6-19.71-12.72-31.75-14.24 2.45-.31 4.95-.47 7.49-.47 14.98 0 28.71 5.56 39.26 14.71 1.09.94 2.14 1.92 3.15 2.93 10.88 10.88 17.63 25.89 17.63 42.4z" fill="#965959"/><path d="m214.385 251.442c-5.82.03-15.76-.01-16.03-.05-7.52-.68-9.31-8.68-8.98-9.97-.45-5.11 2.32-10.55 8.12-12.21l.09-25.27h4.964c5.537 0 10.02 4.499 10 10.036l-.054 15.234c-11.85 3.21-10.44 22.23 1.89 22.23z" fill="#c98585"/><path d="m155.975 229.211.054-15.234c.02-5.537-4.463-10.036-10-10.036h-4.964l-.09 25.27c-11.65 3.33-10.33 21.21.88 22.18.26.04 10.21.08 16.02.05-12.31.001-13.74-19.009-1.9-22.23z" fill="#c98585"/><path d="m223.769 52.852c-1.618-1.317-4.04-.166-4.04 1.921 0 5.861-4.751 10.612-10.612 10.612h-7.951c-18.329 0-33.188 14.859-33.188 33.188 0-.391 0 29.371 0 30.41 0 6.727 5.454 12.176 12.176 12.176 6.725 0 12.176-5.451 12.176-12.176v-19.32c0-8.706 3.776-15.114 6.336-16.843 5.71-3.854 11.441-5.13 17.764-5.13 7.909 0 15.179-4.952 17.503-12.512 2.356-7.666-1.021-14.883-10.164-22.326z" fill="#965959"/><g fill="#5f266d"><ellipse cx="73.008" cy="41.104" rx="6.392" ry="6.392" transform="matrix(.383 -.924 .924 .383 7.094 92.825)"/><path d="m93.154 38.669c.198.029.395.043.589.043 1.951 0 3.659-1.429 3.952-3.417.323-2.186-1.188-4.219-3.373-4.541-13.644-2.012-17.805-10.714-18.007-11.156-.885-2.008-3.224-2.93-5.243-2.06-2.029.874-2.965 3.227-2.09 5.256.23.538 5.872 13.175 24.172 15.875z"/><path d="m224.946 125.208c-8.008-7.999-17.839-13.685-28.588-16.588.282-6.873 3.264-11.62 4.546-12.485 4.555-3.075 9.343-4.446 15.526-4.446 9.78 0 18.551-6.307 21.326-15.337 2.857-9.295-.892-17.998-11.462-26.603-1.956-1.594-4.59-1.911-6.869-.827-2.28 1.083-3.696 3.325-3.696 5.849 0 3.646-2.966 6.613-6.612 6.613h-7.951c-20.504 0-37.186 16.68-37.188 37.184v9.806c-9.583 2.436-18.229 7.004-25.474 13.124h-18.657v-17.81c0-1.999-.715-3.833-1.902-5.262.971-.892 1.849-1.879 2.617-2.954.337 1.14.522 1.914 1.433 3.208 5.385 7.665 17.317 5.659 19.894-3.143l10.703-36.119c1.812-6.111.216-12.783-4.163-17.414-.307-.325-34.848-36.883-35.199-37.161-2.881-2.283-6.6-2.833-9.924-1.592-3.656-1.397-7.505-2.109-11.47-2.109h-9.2c-17.783 0-32.25 14.472-32.25 32.26v6.1c0 1.092-.888 1.98-1.98 1.98h-5.18c-3.551 0-7.027.596-10.362 1.774l-.053-.017c-10.829 4.451-17.197 12.141-19.6 21.497l-.777 3.023.165.089c-2.819 18.973 11.851 35.593 30.626 35.593h12.638c-.002.083-.013.163-.013.247v17.81h-.002v27.99c0 17.223 7.571 32.702 19.55 43.313v30.547h-7.68c-7.433 0-14.77 5.559-14.77 15.86 0 8.144 6.626 14.77 14.77 14.77 22.718 0 26.413 1.199 31.936-3.375 3.416-2.818 5.375-6.971 5.375-11.396v-32.503c2.835.429 5.737.654 8.69.654h16.72 6.166l-.067 18.555c-13.203 6.826-9.737 28.945 5.891 28.945h18.05c15.683 0 19.179-22.331 5.7-29.046l.066-18.454h26.88l-.066 18.553c-13.3 6.865-9.662 28.947 5.88 28.947h18.05c15.655 0 19.221-22.319 5.701-29.046l.073-18.454h6.216c8.145 0 14.771-6.626 14.771-14.77v-22.15c-.001-17.042-6.677-33.104-18.804-45.23zm-52.968-26.636c0-16.094 13.094-29.188 29.188-29.188h7.951c7.013 0 12.888-4.965 14.293-11.565 8.114 7.429 7.757 12.745 6.7 16.183-1.754 5.704-7.379 9.688-13.68 9.688-7.77 0-14.126 1.848-20.003 5.815-9.852 6.653-8.098 25.934-8.098 39.479 0 4.508-3.668 8.176-8.176 8.176s-8.176-3.667-8.176-8.176c.001-17.153.001-13.526.001-30.412zm-63.899-87.591 34.536 36.521c2.426 2.564 3.309 6.259 2.306 9.644l-10.706 36.127c-.775 2.648-4.652 2.858-5.776.628l-23.846-80.654c-.325-1.967 1.891-3.332 3.486-2.266zm-49.693 22.42c0-13.377 10.878-24.26 24.25-24.26h9.2c1.777 0 3.521.191 5.222.565-.54 1.667-.654 3.486-.269 5.312.022.104.048.208.078.31l19.229 65.038v4.125c0 6.008-4.866 10.898-10.863 10.945h-35.603c12.177-24.334-5.144-45.445-11.914-52.373.857-2.229.67-3.281.67-9.662zm53.46 70.287v17.809h-47.995v-17.809c0-.134.108-.24.24-.247 41.325 0 46.476-.004 47.503-.004.139 0 .252.113.252.251zm-79.111-51.672c.549.736.384 1.474.384 3.187 0 4.387-3.569 7.957-7.957 7.957-.452 0-2.533.01-2.946-.017 2.049-4.61 5.711-8.653 10.519-11.127zm10.49 43.425c-9.872 0-18.142-6.159-21.438-14.734 11.275 10.07 29.169 2.02 29.169-13.055 0-2.209-1.791-4-4-4s-4 1.791-4 4c0 10.435-14.494 13.237-18.367 3.507 10.142 0 16.529-7.731 16.529-15.957 0-2.171.113-3.523-.646-5.539 1.913-.228 2.185-.182 7.933-.182 1.317 0 2.571-.262 3.723-.728 2.466 2.495 6.641 7.235 9.763 13.477 5.759 11.517 5.255 22.68-1.466 33.211zm53.804 143.767c0 2.028-.898 3.932-2.471 5.229-2.712 2.246-3.288 1.516-26.839 1.541-9.038 0-9.058-14.63 0-14.63h11.68c2.209 0 4-1.791 4-4v-28.595c4.217 2.605 8.791 4.681 13.63 6.141zm16.69-39.85c-27.499 0-49.87-22.372-49.87-49.87v-19.99h66.703c-9.337 11.207-14.883 25.559-14.883 40.94v22.15c0 2.441.605 4.74 1.658 6.77zm122.03-6.77c0 3.733-3.037 6.77-6.771 6.77h-10.185-.016c-2.054 0-3.991 1.665-4 3.984l-.1 25.21c-.007 1.837 1.237 3.442 3.019 3.894 7.681 1.944 6.867 14.412-.709 14.412 0 0-17.564 0-18.05 0-7.594 0-8.296-12.346-.843-14.37 1.738-.471 2.946-2.045 2.953-3.846l.09-25.27c0-.002-.001-.005-.001-.007s.001-.005.001-.007c0-2.114-1.716-3.992-3.985-4-.005 0-.01 0-.015 0h-34.865-.015c-2.226 0-3.992 1.861-4 3.986l-.09 25.21c-.007 1.836 1.238 3.441 3.019 3.892 7.654 1.939 6.864 14.413-.709 14.413-9.554 0-13.686 0-18.05 0-7.585 0-8.303-12.345-.851-14.37 1.736-.472 2.943-2.046 2.95-3.846l.091-25.27c0-.002-.001-.005-.001-.007s.001-.005.001-.007c0-2.059-1.699-3.992-3.985-4-.005 0-.01 0-.015 0h-10.181c-3.733 0-6.77-3.037-6.77-6.77v-22.15c0-24.966 16.682-46.847 40.309-53.779v12.324c0 8.919 7.257 16.176 16.176 16.176s16.176-7.256 16.176-16.176v-12.041c8.598 2.684 16.462 7.434 22.962 13.925 10.613 10.613 16.458 24.667 16.458 39.571v22.149z"/><path d="m209.087 138.066c-1.604-1.518-4.137-1.45-5.654.155-1.52 1.604-1.45 4.136.154 5.655 9.714 9.197 7.701 14.834 12.581 14.834 2.887 0 4.842-2.993 3.644-5.647-2.536-5.615-6.145-10.66-10.725-14.997z"/><path d="m215.773 169.43c.047.762.07 1.535.07 2.298 0 2.209 1.791 4 4 4s4-1.791 4-4c0-.926-.029-1.864-.086-2.789-.135-2.206-2.064-3.883-4.237-3.747-2.205.136-3.883 2.033-3.747 4.238z"/><ellipse cx="180.154" cy="160.103" rx="8.489" ry="6.875"/></g></svg>