<?xml version="1.0" encoding="utf-8"?>
<!-- Generator: Adobe Illustrator 22.1.0, SVG Export Plug-In . SVG Version: 6.00 Build 0)  -->
<svg xmlns="http://www.w3.org/2000/svg" xmlns:xlink="http://www.w3.org/1999/xlink" version="1.1" id="Layer_1" x="0px" y="0px" viewBox="0 0 256 256" style="enable-background:new 0 0 256 256;" xml:space="preserve" width="512" height="512">
<style type="text/css">
	.st0{fill:#F9CFCF;}
	.st1{fill:#3762CC;}
	.st2{fill:#F9A7A7;}
	.st3{fill:#E0EBFC;}
	.st4{fill:#4671C6;}
	.st5{fill:#6BDDDD;}
	.st6{fill:#FFEA92;}
	.st7{fill:#A4C9FF;}
	.st8{fill:#EAA97D;}
	.st9{fill:#B9BEFC;}
</style>
<g>
	<g>
		<path class="st7" d="M186.591,229.051h-12c-2.209,0-4-1.791-4-4v-18c0-2.209,1.791-4,4-4h12c2.209,0,4,1.791,4,4v18    C190.591,227.26,188.8,229.051,186.591,229.051z"/>
	</g>
	<g>
		<path class="st1" d="M186.591,231.051h-12c-3.309,0-6-2.691-6-6v-18c0-3.309,2.691-6,6-6h12c3.309,0,6,2.691,6,6v18    C192.591,228.359,189.899,231.051,186.591,231.051z M174.591,205.051c-1.103,0-2,0.897-2,2v18c0,1.103,0.897,2,2,2h12    c1.103,0,2-0.897,2-2v-18c0-1.103-0.897-2-2-2H174.591z"/>
	</g>
	<g>
		<g>
			<path class="st6" d="M214.591,216.551h-8c-5.238,0-9.5-4.262-9.5-9.5v-42c0-1.378-1.121-2.5-2.5-2.5h-8     c-1.379,0-2.5,1.122-2.5,2.5v48c0,1.933-1.567,3.5-3.5,3.5s-3.5-1.567-3.5-3.5v-48c0-5.238,4.262-9.5,9.5-9.5h8     c5.238,0,9.5,4.262,9.5,9.5v42c0,1.378,1.121,2.5,2.5,2.5h8c1.379,0,2.5-1.122,2.5-2.5v-84c0-1.933,1.567-3.5,3.5-3.5     s3.5,1.567,3.5,3.5v84C224.091,212.289,219.83,216.551,214.591,216.551z"/>
		</g>
	</g>
	<g>
		<g>
			<path class="st1" d="M214.591,218.551h-8c-6.341,0-11.5-5.159-11.5-11.5v-42c0-0.276-0.225-0.5-0.5-0.5h-8     c-0.275,0-0.5,0.224-0.5,0.5v48c0,3.033-2.467,5.5-5.5,5.5s-5.5-2.467-5.5-5.5v-48c0-6.341,5.159-11.5,11.5-11.5h8     c6.341,0,11.5,5.159,11.5,11.5v42c0,0.276,0.225,0.5,0.5,0.5h8c0.275,0,0.5-0.224,0.5-0.5v-84c0-3.033,2.467-5.5,5.5-5.5     s5.5,2.467,5.5,5.5v84C226.091,213.392,220.932,218.551,214.591,218.551z M186.591,160.551h8c2.481,0,4.5,2.019,4.5,4.5v42     c0,4.136,3.364,7.5,7.5,7.5h8c4.136,0,7.5-3.364,7.5-7.5v-84c0-0.827-0.673-1.5-1.5-1.5s-1.5,0.673-1.5,1.5v84     c0,2.481-2.019,4.5-4.5,4.5h-8c-2.481,0-4.5-2.019-4.5-4.5v-42c0-4.136-3.364-7.5-7.5-7.5h-8c-4.136,0-7.5,3.364-7.5,7.5v48     c0,0.827,0.673,1.5,1.5,1.5s1.5-0.673,1.5-1.5v-48C182.091,162.569,184.109,160.551,186.591,160.551z"/>
		</g>
	</g>
	<g>
		<path class="st2" d="M212.691,124.099h-6.885c-1.118,0-2.025-0.907-2.025-2.025v-10.53c0-1.118,0.907-2.025,2.025-2.025h6.885    V124.099z"/>
	</g>
	<g>
		<path class="st1" d="M212.691,126.099h-6.885c-2.22,0-4.025-1.806-4.025-4.025v-10.53c0-2.219,1.806-4.025,4.025-4.025h6.885    c1.104,0,2,0.896,2,2v14.58C214.691,125.204,213.796,126.099,212.691,126.099z M205.807,111.519l-0.025,10.555l4.91,0.018v-10.573    H205.807z"/>
	</g>
	<g>
		<path class="st7" d="M223.225,146.171h-4.513c-4.122,0-7.464-3.342-7.464-7.464V97.571h19.44v41.136    C230.689,142.83,227.347,146.171,223.225,146.171z"/>
	</g>
	<g>
		<path class="st7" d="M223.225,146.171h-4.513c-4.122,0-7.464-3.342-7.464-7.464V97.571h19.44v41.136    C230.689,142.83,227.347,146.171,223.225,146.171z"/>
	</g>
	<g>
		<path class="st1" d="M223.225,148.171h-4.512c-5.219,0-9.464-4.246-9.464-9.464V97.571c0-1.104,0.896-2,2-2h19.439    c1.104,0,2,0.896,2,2v41.136C232.688,143.926,228.443,148.171,223.225,148.171z M213.249,99.571v39.136    c0,3.013,2.451,5.464,5.464,5.464h4.512c3.013,0,5.464-2.451,5.464-5.464V99.571H213.249z"/>
	</g>
	<g>
		<path class="st0" d="M161.404,122.337c0.001-0.154,0.007-0.301,0.008-0.456c0.002-0.437-0.041-0.862-0.115-1.276    c0-0.002,0-0.011,0-0.011l-0.001,0.005c-0.058-0.324-0.134-0.642-0.232-0.949c-0.002-0.011-0.005-0.029-0.005-0.029l-0.003,0.006    c-0.844-2.609-3.119-4.494-5.808-4.517c-3.403-0.021-6.197,2.957-6.211,6.669c0,0.116-0.004,0.229-0.004,0.344    c-0.045,0.528-0.635,7.426-1.259,11.392c-11.731,60.805-65.605,64.303-65.605,64.303l0.199,8.743    c-0.163,0.649-0.24,1.336-0.214,2.045c0.024,0.628,0.131,1.229,0.301,1.8l0.326,14.287c0,0,71.056-7.129,78.145-84.452    l0.006,0.006c0.002-0.049,0.004-0.101,0.006-0.151c0.325-3.585,0.519-7.312,0.556-11.204l0.011,0.005    C161.679,126.391,161.562,124.044,161.404,122.337z"/>
	</g>
	<g>
		<path class="st0" d="M161.404,122.337c0.001-0.154,0.007-0.301,0.008-0.456c0.002-0.437-0.041-0.862-0.115-1.276    c0-0.002,0-0.011,0-0.011l-0.001,0.005c-0.058-0.324-0.134-0.642-0.232-0.949c-0.002-0.011-0.005-0.029-0.005-0.029l-0.003,0.006    c-0.844-2.609-3.119-4.494-5.808-4.517c-3.403-0.021-6.197,2.957-6.211,6.669c0,0.116-0.004,0.229-0.004,0.344    c-0.045,0.528-0.635,7.426-1.259,11.392c-11.731,60.805-65.605,64.303-65.605,64.303l0.199,8.743    c-0.163,0.649-0.24,1.336-0.214,2.045c0.024,0.628,0.131,1.229,0.301,1.8l0.326,14.287c0,0,71.056-7.129,78.145-84.452    l0.006,0.006c0.002-0.049,0.004-0.101,0.006-0.151c0.325-3.585,0.519-7.312,0.556-11.204l0.011,0.005    C161.679,126.391,161.562,124.044,161.404,122.337z"/>
	</g>
	<g>
		<path class="st1" d="M82.782,226.694c-0.485,0-0.957-0.177-1.325-0.501c-0.417-0.369-0.661-0.896-0.674-1.453l-0.321-14.034    c-0.177-0.667-0.28-1.345-0.306-2.02c-0.029-0.786,0.04-1.568,0.207-2.331l-0.193-8.49c-0.024-1.07,0.8-1.97,1.867-2.041    c0.132-0.009,13.32-0.975,27.699-9.179c19.201-10.957,31.338-28.959,36.074-53.507c0.585-3.724,1.161-10.383,1.223-11.114    l0.004-0.244c0.009-2.4,0.958-4.708,2.604-6.338c1.532-1.516,3.547-2.349,5.619-2.33c3.427,0.028,6.483,2.337,7.652,5.762    c0.036,0.088,0.065,0.18,0.088,0.273c0.097,0.313,0.177,0.64,0.244,0.994c0.015,0.066,0.027,0.133,0.036,0.201    c0.09,0.533,0.132,1.041,0.13,1.549l-0.006,0.371c0.212,2.352,0.243,4.631,0.095,6.774c-0.002,0.03-0.005,0.06-0.008,0.089    c-0.041,3.735-0.229,7.483-0.562,11.145c-0.004,0.051-0.011,0.103-0.019,0.154l0.006,0c-3.737,40.768-25.27,62.061-42.676,72.745    c-18.824,11.554-36.517,13.441-37.261,13.516C82.915,226.69,82.849,226.694,82.782,226.694z M84.21,199.614l0.157,6.903    c0.005,0.179-0.016,0.358-0.06,0.533c-0.121,0.483-0.173,0.983-0.154,1.484c0.017,0.43,0.091,0.87,0.22,1.303    c0.051,0.171,0.078,0.348,0.082,0.526l0.275,12.032c5.223-0.87,19.207-3.875,33.557-12.719    c24.099-14.852,37.774-38.274,40.648-69.616c0.002-0.021,0.004-0.043,0.007-0.065c0.002-0.036,0.003-0.066,0.004-0.078    c0.329-3.627,0.514-7.342,0.548-11.042c0.001-0.109,0.011-0.217,0.029-0.323c0.148-2.367,0.023-4.577-0.11-6.031    c-0.007-0.065-0.009-0.131-0.009-0.196l0.007-0.442c0.001-0.3-0.025-0.6-0.083-0.923c0-0.001,0-0.002,0-0.004    c-0.043-0.236-0.097-0.468-0.169-0.692c-0.004-0.013-0.008-0.027-0.012-0.04c-0.607-1.848-2.179-3.098-3.916-3.112    c-0.008,0-0.016,0-0.022,0c-1.011,0-1.988,0.416-2.753,1.173c-0.896,0.888-1.414,2.165-1.419,3.503l-0.005,0.354    c0,0.049-0.003,0.099-0.007,0.149c-0.006,0.073-0.614,7.337-1.275,11.537c-6.216,32.226-24.198,48.442-38.19,56.382    C99.53,197.035,88.527,199.053,84.21,199.614z"/>
	</g>
	<g>
		<path class="st2" d="M42.64,158.265L42.64,158.265c-12.99,0-23.52,10.53-23.52,23.52v20.16c0,2.021,0.23,3.987,0.653,5.88    c-6.717,2.199-11.573,8.508-11.573,15.96c0,2.784,2.256,5.04,5.04,5.04H46h21v-21.84v-24.36    C67,169.171,56.094,158.265,42.64,158.265z"/>
	</g>
	<g>
		<path class="st1" d="M67,230.825H13.24c-3.882,0-7.04-3.158-7.04-7.04c0-7.552,4.471-14.27,11.292-17.231    c-0.247-1.531-0.372-3.075-0.372-4.608v-20.16c0-14.072,11.448-25.52,25.52-25.52c14.535,0,26.36,11.825,26.36,26.36v46.2    C69,229.929,68.104,230.825,67,230.825z M42.64,160.265c-11.866,0-21.52,9.654-21.52,21.52v20.16c0,1.813,0.203,3.645,0.604,5.445    c0.224,1.005-0.352,2.016-1.33,2.336c-6.098,1.996-10.194,7.646-10.194,14.059c0,1.676,1.363,3.04,3.04,3.04H65v-44.2    C65,170.295,54.969,160.265,42.64,160.265z"/>
	</g>
	<g>
		<path class="st2" d="M147.827,207.825c0.423-1.893,0.653-3.859,0.653-5.88v-20.16c0-12.99-10.53-23.52-23.52-23.52h0    c-13.454,0-24.36,10.906-24.36,24.36v24.36v21.84h21h32.76c2.784,0,5.04-2.256,5.04-5.04    C159.4,216.333,154.544,210.024,147.827,207.825z"/>
	</g>
	<g>
		<path class="st1" d="M154.36,230.825H100.6c-1.104,0-2-0.896-2-2v-46.2c0-14.535,11.825-26.36,26.36-26.36    c14.072,0,25.521,11.448,25.521,25.52v20.16c0,1.534-0.125,3.078-0.373,4.609c6.821,2.961,11.293,9.68,11.293,17.231    C161.4,227.667,158.242,230.825,154.36,230.825z M102.6,226.825h51.761c1.677,0,3.04-1.364,3.04-3.04    c0-6.413-4.098-12.063-10.195-14.059c-0.979-0.32-1.555-1.332-1.33-2.337c0.401-1.798,0.605-3.63,0.605-5.444v-20.16    c0-11.866-9.654-21.52-21.521-21.52c-12.329,0-22.36,10.031-22.36,22.36V226.825z"/>
	</g>
	<g>
		<path class="st2" d="M133.631,179c0.938,5.749,1.409,11.555,1.409,17.37v0.259c0,17.781-15.595,32.196-34.832,32.196H67.392    c-19.237,0-34.832-14.415-34.832-32.196v0c0-5.987,0.485-11.965,1.45-17.885l0,0l8.821-54.079h81.938l8.793,53.913L133.631,179z"/>
	</g>
	<g>
		<path class="st2" d="M47.548,158.402v10.032c0,19.22,1.681,38.403,5.023,57.33l0,0c0.313,1.771,1.852,3.062,3.651,3.062    l21.05-0.093l0.027,0c1.274-0.011,2.301-1.047,2.301-2.321v-46.308c0-1.856,1.504-3.36,3.36-3.36c0.03,0,0.058,0.008,0.088,0.009    c0.03-0.001,0.058-0.009,0.088-0.009c0.382,0,0.74,0.091,1.064,0.243c1.24,0.494,2.119,1.7,2.119,3.117l0,46.095    c0,0.973,0.552,1.897,1.455,2.261c0.378,0.153,0.79,0.238,1.223,0.241l22.38,0.125c1.799,0,3.338-1.291,3.651-3.062l0,0    c3.342-18.927,5.023-38.11,5.023-57.33v-10.032H47.548z"/>
	</g>
	<g>
		<path class="st1" d="M100.208,230.825H67.393c-20.31,0-36.833-15.34-36.833-34.196c0-6.073,0.497-12.199,1.478-18.207l8.82-54.079    c0.157-0.968,0.993-1.678,1.974-1.678h81.938c0.98,0,1.816,0.71,1.974,1.678l8.862,54.333c0,0,0,0.001,0,0.002    c0.952,5.836,1.435,11.789,1.435,17.691v0.259C137.04,215.484,120.518,230.825,100.208,230.825z M44.531,126.665l-8.547,52.401    c-0.945,5.796-1.425,11.705-1.425,17.563c0,16.65,14.729,30.196,32.833,30.196h32.815c18.104,0,32.832-13.546,32.832-30.196    v-0.259c0-5.687-0.465-11.422-1.382-17.046l-8.589-52.659H44.531z"/>
	</g>
	<g>
		<path class="st2" d="M134.693,30.473c1.571,5.395,3.33,18.328-6.967,36.908l-32.18-27.002    c16.509-13.367,29.551-13.88,35.137-13.27C132.583,27.316,134.159,28.638,134.693,30.473z"/>
	</g>
	<g>
		<path class="st2" d="M32.907,30.473c-1.571,5.395-3.33,18.328,6.967,36.908l32.18-27.002    c-16.509-13.367-29.551-13.88-35.137-13.27C35.017,27.316,33.441,28.638,32.907,30.473z"/>
	</g>
	<g>
		<path class="st1" d="M127.726,69.381c-0.467,0-0.923-0.163-1.285-0.468l-32.18-27.002c-0.458-0.384-0.72-0.953-0.715-1.55    s0.277-1.161,0.741-1.537c16.765-13.574,30.142-14.409,36.612-13.705c2.71,0.296,4.953,2.178,5.714,4.794    c1.822,6.258,3.316,19.573-7.139,38.437c-0.289,0.522-0.797,0.888-1.385,0.997C127.969,69.37,127.847,69.381,127.726,69.381z     M98.719,40.43l28.405,23.835c8.812-17.091,6.923-28.857,5.649-33.233l0,0c-0.308-1.057-1.214-1.816-2.308-1.936    C125.935,28.598,114.021,28.784,98.719,40.43z"/>
	</g>
	<g>
		<path class="st1" d="M39.874,69.381c-0.121,0-0.243-0.011-0.364-0.034c-0.588-0.109-1.096-0.475-1.385-0.997    c-10.456-18.866-8.96-32.18-7.138-38.436c0.762-2.616,3.004-4.498,5.713-4.794c6.474-0.706,19.85,0.132,36.612,13.705    c0.464,0.376,0.736,0.939,0.741,1.537s-0.257,1.166-0.715,1.55l-32.18,27.002C40.797,69.218,40.341,69.381,39.874,69.381z     M39.867,28.956c-1.091,0-2.006,0.062-2.733,0.141c-1.094,0.119-1.999,0.879-2.307,1.936l0,0    c-1.274,4.375-3.164,16.139,5.648,33.233L68.881,40.43C56.034,30.653,45.574,28.956,39.867,28.956z M32.907,30.473h0.01H32.907z"/>
	</g>
	<g>
		<path class="st0" d="M37.6,94.344v-15.96c0-21.34,17.3-38.64,38.64-38.64h15.12c21.34,0,38.64,17.3,38.64,38.64v15.96    c0,6.959-5.641,12.6-12.6,12.6H50.2C43.241,106.944,37.6,101.303,37.6,94.344z"/>
	</g>
	<g>
		<path class="st2" d="M63.64,94.425c7.423,0,13.44-6.017,13.44-13.44v-41.16h-3.228C53.625,41.059,37.6,57.847,37.6,78.384v15.96    c0,0.027,0.004,0.053,0.004,0.081H63.64z"/>
	</g>
	<g>
		<path class="st2" d="M93.748,39.825H90.52v41.16c0,7.423,6.017,13.44,13.44,13.44h26.036c0-0.027,0.004-0.053,0.004-0.081v-15.96    C130,57.847,113.975,41.059,93.748,39.825z"/>
	</g>
	<g>
		<path class="st0" d="M125.636,57.503c4.086-9.684,4.363-17.003,3.82-21.555c-0.194-1.628-1.619-2.824-3.256-2.732    c-4.577,0.256-11.737,1.799-20.564,7.505L125.636,57.503z"/>
	</g>
	<g>
		<path class="st0" d="M41.964,57.503c-4.086-9.684-4.363-17.003-3.82-21.555c0.194-1.628,1.619-2.824,3.256-2.732    c4.577,0.256,11.737,1.799,20.564,7.505L41.964,57.503z"/>
	</g>
	<g>
		<g>
			<path class="st1" d="M60.62,88.03h-0.006c-2.559,0-4.634-2.074-4.634-4.634v-5.56c0-2.559,2.074-4.634,4.634-4.634h0.006     c2.559,0,4.634,2.074,4.634,4.634v5.56C65.254,85.956,63.179,88.03,60.62,88.03z"/>
		</g>
		<g>
			<path class="st1" d="M106.986,88.03h-0.006c-2.559,0-4.634-2.074-4.634-4.634v-5.56c0-2.559,2.074-4.634,4.634-4.634h0.006     c2.559,0,4.634,2.074,4.634,4.634v5.56C111.619,85.956,109.545,88.03,106.986,88.03z"/>
		</g>
	</g>
	<g>
		<path class="st1" d="M117.4,108.944H50.2c-8.051,0-14.601-6.549-14.601-14.6v-15.96c0-22.409,18.231-40.64,40.641-40.64h15.12    c22.409,0,40.64,18.231,40.64,40.64v15.96C132,102.395,125.45,108.944,117.4,108.944z M76.24,41.744    c-20.204,0-36.641,16.437-36.641,36.64v15.96c0,5.845,4.756,10.6,10.601,10.6h67.2c5.845,0,10.6-4.755,10.6-10.6v-15.96    c0-20.203-16.437-36.64-36.64-36.64H76.24z"/>
	</g>
	<g>
		<path class="st0" d="M28.36,116.047v-0.578c0-14.686,11.905-26.591,26.591-26.591h57.698c14.686,0,26.591,11.905,26.591,26.591    v0.578c0,14.686-11.905,26.591-26.591,26.591H54.951C40.265,142.638,28.36,130.733,28.36,116.047z"/>
	</g>
	<g>
		<path class="st3" d="M95.56,142.651H72.04c-7.423,0-13.44-6.017-13.44-13.44v-13.44c0-7.423,6.017-13.44,13.44-13.44h23.52    c7.423,0,13.44,6.017,13.44,13.44v13.44C109,136.633,102.983,142.651,95.56,142.651z"/>
	</g>
	<g>
		<path class="st1" d="M93.16,121.205c-3.626,0-6.973-1.201-9.36-3.292c-2.388,2.091-5.734,3.292-9.359,3.292    c-7.059,0-12.801-4.666-12.801-10.4c0-1.104,0.896-2,2-2s2,0.896,2,2c0,3.529,3.948,6.4,8.801,6.4    c3.225,0,6.195-1.307,7.752-3.411c0.754-1.02,2.461-1.02,3.215,0c1.557,2.104,4.527,3.411,7.753,3.411c4.853,0,8.8-2.871,8.8-6.4    c0-1.104,0.896-2,2-2s2,0.896,2,2C105.96,116.539,100.218,121.205,93.16,121.205z"/>
	</g>
	<g>
		<path class="st4" d="M88.06,108.211H79.54c-3.214,0-5.82-2.606-5.82-5.82v-2.061c0-2.143,1.737-3.88,3.88-3.88H90    c2.143,0,3.88,1.737,3.88,3.88v2.061C93.88,105.605,91.274,108.211,88.06,108.211z"/>
	</g>
	<g>
		<path class="st1" d="M112.649,144.638H54.951c-15.765,0-28.591-12.826-28.591-28.591v-0.578c0-15.765,12.826-28.591,28.591-28.591    h57.698c15.765,0,28.591,12.826,28.591,28.591v0.578C141.24,131.812,128.414,144.638,112.649,144.638z M54.951,90.878    c-13.56,0-24.591,11.031-24.591,24.591v0.578c0,13.56,11.031,24.591,24.591,24.591h57.698c13.56,0,24.591-11.031,24.591-24.591    v-0.578c0-13.56-11.031-24.591-24.591-24.591H54.951z"/>
	</g>
	<g>
		<path class="st0" d="M86.32,213.705V226.2c0,0.973,0.552,1.897,1.455,2.261c0.378,0.153,0.79,0.238,1.223,0.241l22.012,0.123    h0.391c1.789-0.011,3.316-1.297,3.628-3.06l0-0.001c0.708-4.008,1.325-8.03,1.883-12.059H86.32z"/>
	</g>
	<g>
		<path class="st0" d="M77.272,228.733l0.027,0c1.274-0.011,2.301-1.047,2.301-2.321v-12.708H50.688    c0.559,4.029,1.175,8.051,1.883,12.06v0c0.311,1.764,1.839,3.049,3.628,3.06h0.485L77.272,228.733z"/>
	</g>
	<g>
		<path class="st1" d="M111.379,230.827l-22.392-0.125c-0.678-0.004-1.338-0.134-1.963-0.387c-1.643-0.664-2.704-2.279-2.704-4.115    v-46.096c0-0.557-0.338-1.051-0.86-1.259c-0.036-0.015-0.071-0.03-0.107-0.047c-0.058-0.027-0.112-0.044-0.164-0.051    c-0.138,0.011-0.223,0.003-0.295-0.002c-0.72,0.035-1.294,0.631-1.294,1.358v46.308c0,2.362-1.922,4.3-4.284,4.32l-21.085,0.094    c-2.783,0-5.146-1.983-5.629-4.715c-3.354-18.988-5.054-38.394-5.054-57.678v-10.032c0-1.104,0.896-2,2-2s2,0.896,2,2v10.032    c0,19.051,1.68,38.223,4.993,56.982c0.144,0.817,0.851,1.41,1.681,1.41l21.041-0.093c0.194-0.002,0.337-0.146,0.337-0.321v-46.308    c0-2.956,2.404-5.36,5.36-5.36c0.027,0,0.058,0.001,0.089,0.002c0.032-0.001,0.062-0.002,0.088-0.002    c0.638,0,1.263,0.137,1.858,0.407c2.021,0.831,3.325,2.769,3.325,4.953V226.2c0,0.182,0.09,0.361,0.204,0.407    c0.153,0.062,0.316,0.094,0.485,0.095l22.38,0.125c0.819,0,1.526-0.593,1.67-1.41c3.313-18.761,4.992-37.933,4.992-56.982v-10.032    c0-1.104,0.896-2,2-2s2,0.896,2,2v10.032c0,19.282-1.7,38.688-5.053,57.677C116.517,228.843,114.153,230.827,111.379,230.827z     M82.808,174.769c-0.002,0-0.003,0-0.005,0C82.805,174.77,82.806,174.769,82.808,174.769z M82.809,174.769    C82.808,174.769,82.808,174.769,82.809,174.769C82.808,174.769,82.808,174.769,82.809,174.769z"/>
	</g>
	<g>
		<path class="st7" d="M219.45,49.68c-3.261,0-6.391,0.558-9.307,1.571v-0.007l-42.412,12.141c-1.39,0.398-2.348,1.669-2.348,3.115    v23.06c0,1.446,0.958,2.717,2.348,3.115l42.412,12.14v-0.006c2.916,1.013,6.046,1.571,9.307,1.571    c15.657,0,28.35-12.693,28.35-28.35C247.8,62.373,235.107,49.68,219.45,49.68z"/>
	</g>
	<g>
		<circle class="st0" cx="219.45" cy="78.03" r="14.58"/>
	</g>
	<g>
		<path class="st3" d="M175.811,61.072l-8.08,2.313c-1.39,0.398-2.348,1.669-2.348,3.115v23.06c0,1.446,0.958,2.717,2.348,3.115    l8.08,2.313V61.072z"/>
	</g>
	<g>
		<g>
			<path class="st0" d="M159.591,87.051c-2.283,0-3.329-1.9-3.954-3.036c-0.129-0.234-0.301-0.546-0.449-0.77     c-0.149,0.225-0.321,0.537-0.45,0.771c-0.625,1.135-1.671,3.035-3.953,3.035s-3.328-1.9-3.952-3.036     c-0.129-0.233-0.299-0.543-0.447-0.767c-0.148,0.224-0.318,0.534-0.446,0.767c-0.624,1.136-1.669,3.037-3.951,3.037     s-3.327-1.901-3.951-3.037c-0.174-0.317-0.427-0.778-0.596-0.969c-1.034-0.077-1.85-0.94-1.85-1.995c0-1.104,0.896-2,2-2     c2.282,0,3.327,1.901,3.951,3.037c0.128,0.232,0.298,0.542,0.445,0.766c0.147-0.224,0.317-0.533,0.445-0.766     c0.624-1.136,1.669-3.037,3.951-3.037s3.328,1.9,3.952,3.036c0.129,0.233,0.3,0.545,0.448,0.769     c0.149-0.224,0.32-0.536,0.449-0.769c0.625-1.136,1.671-3.036,3.954-3.036c2.282,0,3.328,1.9,3.953,3.035     c0.175,0.318,0.43,0.78,0.598,0.97c1.036,0.076,1.853,0.94,1.853,1.995C161.591,86.155,160.696,87.051,159.591,87.051z      M137.591,83.051h0.01H137.591z"/>
		</g>
	</g>
	<g>
		<g>
			<path class="st0" d="M159.591,75.051c-2.283,0-3.329-1.9-3.954-3.036c-0.129-0.234-0.301-0.546-0.449-0.77     c-0.149,0.225-0.321,0.537-0.45,0.771c-0.625,1.135-1.671,3.035-3.953,3.035s-3.328-1.9-3.952-3.036     c-0.129-0.233-0.299-0.543-0.447-0.767c-0.148,0.224-0.318,0.534-0.446,0.767c-0.624,1.136-1.669,3.037-3.951,3.037     s-3.327-1.901-3.951-3.037c-0.174-0.317-0.427-0.778-0.596-0.969c-1.034-0.077-1.85-0.94-1.85-1.995c0-1.104,0.896-2,2-2     c2.282,0,3.327,1.901,3.951,3.037c0.128,0.232,0.298,0.542,0.445,0.766c0.147-0.224,0.317-0.533,0.445-0.766     c0.624-1.136,1.669-3.037,3.951-3.037s3.328,1.9,3.952,3.036c0.129,0.233,0.3,0.545,0.448,0.769     c0.149-0.224,0.32-0.536,0.449-0.769c0.625-1.136,1.671-3.036,3.954-3.036c2.282,0,3.328,1.9,3.953,3.035     c0.175,0.318,0.43,0.78,0.598,0.97c1.036,0.076,1.853,0.94,1.853,1.995C161.591,74.155,160.696,75.051,159.591,75.051z      M137.591,71.051h0.01H137.591z"/>
		</g>
	</g>
	<g>
		<path class="st1" d="M219.45,108.38c-3.347,0-6.648-0.549-9.815-1.631c-0.014-0.003-0.028-0.007-0.042-0.011l-42.413-12.14    c-2.235-0.64-3.797-2.712-3.797-5.038V66.5c0-2.326,1.562-4.398,3.797-5.038l42.413-12.141c0.017-0.004,0.032-0.009,0.048-0.013    c3.164-1.081,6.464-1.629,9.81-1.629c16.734,0,30.35,13.615,30.35,30.35S236.185,108.38,219.45,108.38z M210.55,102.851    c0.084,0.017,0.168,0.04,0.25,0.069c2.789,0.969,5.7,1.46,8.65,1.46c14.529,0,26.35-11.821,26.35-26.35s-11.82-26.35-26.35-26.35    c-2.951,0-5.862,0.491-8.65,1.46c-0.085,0.029-0.171,0.053-0.258,0.071l-42.261,12.097c-0.529,0.151-0.898,0.642-0.898,1.192    v23.06c0,0.55,0.369,1.041,0.898,1.192L210.55,102.851z"/>
	</g>
</g>
</svg>
