<?xml version="1.0" encoding="utf-8"?>
<!-- Generator: Adobe Illustrator 22.1.0, SVG Export Plug-In . SVG Version: 6.00 Build 0)  -->
<svg xmlns="http://www.w3.org/2000/svg" xmlns:xlink="http://www.w3.org/1999/xlink" version="1.1" id="Layer_1" x="0px" y="0px" viewBox="0 0 256 256" style="enable-background:new 0 0 256 256;" xml:space="preserve" width="512" height="512">
<style type="text/css">
	.st0{fill:#F9CFCF;}
	.st1{fill:#3762CC;}
	.st2{fill:#F9A7A7;}
	.st3{fill:#E0EBFC;}
	.st4{fill:#4671C6;}
	.st5{fill:#6BDDDD;}
	.st6{fill:#FFEA92;}
	.st7{fill:#A4C9FF;}
	.st8{fill:#EAA97D;}
	.st9{fill:#B9BEFC;}
</style>
<g>
	<g>
		<g>
			<path class="st2" d="M204.686,210.633c-5.952,0-10.452-1.147-10.823-1.245c-3.201-0.842-5.118-4.139-4.283-7.366     c0.833-3.22,4.097-5.15,7.292-4.321c0.257,0.065,13.065,3.209,20.717-2.789c4.136-3.243,6.234-8.971,6.234-17.022     c0-3.334,2.682-6.037,5.989-6.037s5.989,2.703,5.989,6.037c0,12.008-3.675,20.959-10.923,26.604     C218.575,209.402,210.852,210.633,204.686,210.633z"/>
		</g>
	</g>
	<g>
		<g>
			<path class="st1" d="M204.686,212.633c-6.162,0-10.819-1.176-11.33-1.31c-4.259-1.12-6.82-5.517-5.712-9.801     c0.536-2.072,1.842-3.812,3.678-4.899c1.838-1.089,3.988-1.391,6.053-0.857c0.105,0.027,12.117,2.954,18.981-2.427     c3.627-2.845,5.467-8.042,5.467-15.448c0-4.432,3.584-8.037,7.989-8.037c4.404,0,7.988,3.605,7.988,8.037     c0,12.657-3.935,22.139-11.694,28.182C220.594,210.364,213.187,212.633,204.686,212.633z M195.369,199.51     c-0.703,0-1.392,0.188-2.01,0.554c-0.919,0.544-1.573,1.418-1.843,2.459c-0.559,2.158,0.723,4.37,2.855,4.931     c0.183,0.048,4.557,1.179,10.313,1.179c5.301,0,12.895-0.992,18.963-5.717c6.735-5.246,10.151-13.666,10.151-25.026     c0-2.226-1.789-4.037-3.988-4.037s-3.989,1.811-3.989,4.037c0,8.697-2.354,14.954-6.999,18.596     c-8.408,6.591-21.872,3.298-22.44,3.155C196.046,199.554,195.706,199.51,195.369,199.51z"/>
		</g>
	</g>
	<g>
		<path class="st2" d="M176.704,157.908L106.29,86.929V76.771H67.363v46.444c-11.027,11.667-10.882,30.122,0.484,41.579    l23.472,23.66l26.95,36.222l4.81-4.848c14.702,11.008,35.553,9.833,48.89-3.611l4.737-4.775    C191.37,196.659,191.37,172.691,176.704,157.908z"/>
	</g>
	<g>
		<path class="st2" d="M156.193,150.629c-26.459,0.331-47.637,22.22-47.303,48.891c0.136,10.858,3.817,20.834,9.919,28.825    c-7.396,0.437-13.219,6.649-13.124,14.194l0.013,1.015c0.03,2.377,1.966,4.28,4.324,4.251l39.492-0.494    c0.825-0.01,1.618-0.141,2.375-0.357c1.811,0.186,3.649,0.282,5.513,0.259c26.458-0.331,47.637-22.22,47.303-48.891    C204.371,171.651,182.651,150.298,156.193,150.629z"/>
	</g>
	<g>
		<path class="st0" d="M170.559,151.681l-57.483-56.513l-14.673,15.045c-8.013,8.216-7.848,21.372,0.367,29.385l27.956,27.265    c8.216,8.013,21.372,7.848,29.385-0.367L170.559,151.681z"/>
	</g>
	<g>
		<path class="st2" d="M104.645,29.65h0.037c-16.035-7.17-35.592-2.743-42.486-0.788c-0.816,0.18-1.609,0.427-2.382,0.728    c-0.105,0.035-0.176,0.06-0.176,0.06h0.035c-7.162,2.861-12.314,10.704-12.314,19.955v4.545c0,1.334-0.868,2.509-2.135,2.892    l-15.361,4.638H29.86c-5.335,0-9.66,4.999-9.66,11.166v16.908c0,6.167,4.325,11.166,9.66,11.166h17.499h17.956    c1.544,0,2.796,1.262,2.796,2.819c0,0.017-0.005,0.033-0.005,0.05l39.768-8.017c7.366-0.158,13.292-6.215,13.292-13.678V52.692    C121.166,41.949,114.238,32.851,104.645,29.65z"/>
	</g>
	<g>
		<path class="st0" d="M84.404,75.572c7.383,0,13.368-6.033,13.368-13.475V27.299c-14.362-3.606-29.648-0.118-35.576,1.563    c-0.816,0.18-1.609,0.427-2.382,0.728c-0.105,0.035-0.176,0.06-0.176,0.06h0.035c-0.967,0.386-1.893,0.87-2.779,1.429    c-1.099,2.245-1.733,4.763-1.733,7.436v23.582c0,7.442,5.985,13.475,13.368,13.475H84.404z"/>
	</g>
	<g>
		<path class="st1" d="M63.619,58.66L63.619,58.66c-2.481,0-4.492-2.011-4.492-4.492v-6.109c0-2.481,2.011-4.492,4.492-4.492h0    c2.481,0,4.492,2.011,4.492,4.492v6.109C68.111,56.649,66.1,58.66,63.619,58.66z"/>
	</g>
	<g>
		<path class="st1" d="M27.687,80.28H20.2c-1.104,0-2-0.896-2-2v-5.436c0-7.143,5.063-12.975,11.35-13.162l2.207-0.666    c0.781-0.235,1.63,0.028,2.14,0.667c1.163,1.457,1.778,3.19,1.778,5.013v7.546C35.675,76.675,32.091,80.28,27.687,80.28z     M22.2,76.28h5.486c2.199,0,3.988-1.811,3.988-4.037v-7.546c0-0.53-0.105-0.998-0.259-1.398l-0.976,0.294    c-0.188,0.057-0.383,0.085-0.578,0.085c-4.225,0-7.662,4.112-7.662,9.166V76.28z"/>
	</g>
	<g>
		<path class="st4" d="M33.675,72.243v-7.546c0-1.432-0.515-2.73-1.341-3.765l-2.471,0.746H29.86c-5.335,0-9.66,4.999-9.66,11.166    v5.436h7.486C30.994,78.28,33.675,75.577,33.675,72.243z"/>
	</g>
	<g>
		<path class="st2" d="M94.313,164.307l-26.95-4.528l12.778,67.916h-7.689c-6.118,0-11.078,4.999-11.078,11.167v5.035    c0,1.888,1.518,3.418,3.391,3.418h19.067h3.246h0.913c5.089,0,9.162-4.258,8.977-9.385L94.313,164.307z"/>
	</g>
	<g>
		<path class="st1" d="M156.447,249.315c-1.734,0-3.539-0.101-5.37-0.299c-0.842,0.199-1.688,0.299-2.519,0.299h-39.495    c-3.458,0-6.271-2.828-6.271-6.305v-1.016c0-7.421,4.986-13.686,11.843-15.509c-2.016-3.122-3.689-6.491-4.994-10.054    l-12.03-16.169l1.356,37.595c0.109,3.042-0.99,5.919-3.097,8.103c-2.087,2.163-4.885,3.354-7.88,3.354H64.765    c-2.973,0-5.391-2.431-5.391-5.418v-5.035c0-7.26,5.866-13.167,13.077-13.167h5.278L66.563,166.34l-0.135-0.136    c-12.001-12.097-12.407-31.169-1.065-43.77V102.92c-0.016-0.001-0.031-0.001-0.047-0.001H29.86c-6.43,0-11.66-5.906-11.66-13.166    V72.845c0-7.143,5.063-12.975,11.35-13.162l15.096-4.557c0.42-0.127,0.714-0.529,0.714-0.977v-4.545    c0-9.7,5.34-18.384,13.315-21.708c0.099-0.055,0.204-0.101,0.314-0.139l0.187-0.063c0.787-0.309,1.666-0.578,2.53-0.772    c7.741-2.189,27.378-6.439,43.793,0.902c0.01,0.004,0.02,0.009,0.029,0.013c10.561,3.643,17.638,13.598,17.638,24.854v29.401    c0,5.061-2.376,9.69-6.343,12.615l56.539,56.992c19.757,7.17,32.996,26.127,32.996,47.32    C206.358,226.752,183.969,249.315,156.447,249.315z M150.938,244.987c0.076,0,0.153,0.004,0.229,0.013    c1.806,0.208,3.582,0.314,5.279,0.314c25.315,0,45.911-20.768,45.911-46.296c0-19.655-12.362-37.218-30.762-43.704    c-0.284-0.1-0.542-0.264-0.755-0.478L112.21,95.736c-0.451-0.455-0.657-1.099-0.554-1.731c0.104-0.633,0.503-1.177,1.076-1.465    c3.969-1.994,6.434-5.997,6.434-10.448V52.691c0-9.622-6.09-18.12-15.153-21.145c-0.142-0.047-0.273-0.108-0.396-0.182    c-15.211-6.667-33.632-2.632-40.874-0.578c-0.038,0.011-0.076,0.02-0.115,0.029c-0.684,0.151-1.387,0.366-2.089,0.639    l-0.011,0.003c-0.037,0.018-0.074,0.034-0.112,0.049c-6.612,2.642-11.056,9.915-11.056,18.098v4.545    c0,2.232-1.43,4.164-3.558,4.806L30.44,63.593c-0.188,0.057-0.382,0.085-0.578,0.085c-4.225,0-7.662,4.112-7.662,9.166v16.908    c0,5.054,3.437,9.166,7.66,9.166h35.455c1.329,0,2.612,0.568,3.521,1.56c0.338,0.369,0.525,0.851,0.525,1.352v21.385    c0,0.511-0.195,1.002-0.547,1.374c-10.233,10.827-10.031,28.231,0.451,38.797l0.566,0.571c0.282,0.284,0.473,0.646,0.547,1.04    l11.727,62.329c0.109,0.585-0.047,1.188-0.427,1.646s-0.944,0.723-1.539,0.723h-7.689c-5.005,0-9.077,4.112-9.077,9.167v5.035    c0,0.782,0.624,1.418,1.391,1.418h23.227c1.899,0,3.675-0.757,5.001-2.131c1.346-1.395,2.048-3.235,1.978-5.182l-1.588-44.015    c-0.031-0.875,0.51-1.669,1.336-1.959c0.825-0.292,1.744-0.011,2.268,0.693l16.04,21.559c0.117,0.158,0.211,0.332,0.277,0.517    c1.563,4.342,3.714,8.371,6.396,11.976c0.441,0.593,0.52,1.382,0.203,2.05c-0.316,0.668-0.976,1.107-1.715,1.142    c-6.389,0.297-11.394,5.582-11.394,12.031v1.016c0,1.271,1.019,2.305,2.271,2.305h39.495c0.604,0,1.228-0.086,1.854-0.257    C150.584,245.011,150.761,244.987,150.938,244.987z"/>
	</g>
	<g>
		<path class="st2" d="M101.08,53.674h-8.288c-4.633,0-8.388-3.756-8.388-8.388V11.55c0-1.853,1.502-3.355,3.355-3.355h1.577    c11.119,0,20.132,9.014,20.132,20.132v16.958C109.469,49.919,105.713,53.674,101.08,53.674z"/>
	</g>
	<g>
		<path class="st1" d="M101.08,55.674h-8.288c-5.729,0-10.389-4.66-10.389-10.389V11.55c0-2.953,2.402-5.355,5.355-5.355h1.577    c12.204,0,22.133,9.929,22.133,22.132v16.958C111.469,51.014,106.809,55.674,101.08,55.674z M87.759,10.195    c-0.747,0-1.355,0.608-1.355,1.355v33.735c0,3.523,2.866,6.389,6.389,6.389h8.288c3.522,0,6.389-2.866,6.389-6.389V28.327    c0-9.998-8.135-18.132-18.133-18.132H87.759z"/>
	</g>
	<g>
		<path class="st7" d="M208,133.255h-98c-3.314,0-6-2.686-6-6v0c0-3.314,2.686-6,6-6h98c3.314,0,6,2.686,6,6v0    C214,130.569,211.314,133.255,208,133.255z"/>
	</g>
	<g>
		<path class="st6" d="M162,127.755h-5h-5l-4.982,66.755c-0.012,0.164-0.018,0.328-0.018,0.492v2.219    c0,2.209,1.104,4.271,2.941,5.496l1.394,0.93c1.085,0.723,2.36,1.109,3.664,1.109l0,0h4l0,0c1.304,0,2.579-0.386,3.664-1.109    l1.394-0.93c1.838-1.225,2.941-3.288,2.941-5.496v-2.219c0-0.164-0.006-0.328-0.018-0.492L162,127.755z"/>
	</g>
	<g>
		<path class="st2" d="M190.66,145.12h9.45c0,0,0.848,17.526-5.838,24.86c-0.664,0.728-2.067,0.193-1.857-0.702    C193.824,163.266,196.39,149.181,190.66,145.12z"/>
	</g>
	<g>
		<path class="st2" d="M205.423,144.537l6.682-6.682c0,0,10.274,9.075,9.594,17.85c-0.067,0.871-1.355,1.568-1.701,0.926    C217.677,152.316,211.716,142.727,205.423,144.537z"/>
	</g>
	<g>
		<path class="st2" d="M173.86,145.12h9.45c0,0,0.848,21.198-5.838,30.067c-0.664,0.88-2.067,0.233-1.857-0.849    C177.024,167.067,179.59,150.032,173.86,145.12z"/>
	</g>
	<g>
		<path class="st2" d="M205.246,162.146l8.604-3.909c0,0,6.431,12.106,2.712,20.083c-0.369,0.792-1.82,0.992-1.918,0.269    C213.985,173.733,211.773,162.661,205.246,162.146z"/>
	</g>
	<g>
		<path class="st1" d="M193.465,172.323c-0.514,0-1.034-0.124-1.517-0.377c-1.179-0.621-1.773-1.877-1.48-3.125    c2.651-11.312,2.282-19.769-0.964-22.069c-0.711-0.503-1.014-1.409-0.749-2.239c0.264-0.83,1.034-1.393,1.905-1.393h9.45    c1.067,0,1.946,0.837,1.998,1.903c0.036,0.75,0.805,18.447-6.358,26.304C195.155,171.979,194.32,172.323,193.465,172.323z     M194.699,147.121c2.056,4.512,1.703,11.217,0.785,16.955c2.157-5.416,2.675-12.687,2.671-16.955H194.699z"/>
	</g>
	<g>
		<path class="st1" d="M220.442,158.882c-0.932,0-1.761-0.477-2.205-1.304c-3.299-6.13-8.251-12.271-12.262-11.119    c-0.88,0.252-1.813-0.121-2.275-0.906c-0.464-0.786-0.336-1.785,0.309-2.43l6.683-6.682c0.746-0.748,1.945-0.784,2.738-0.085    c0.45,0.397,11.012,9.846,10.264,19.503c-0.123,1.584-1.463,2.708-2.662,2.96C220.832,158.861,220.635,158.882,220.442,158.882z     M209.946,142.842c3.61,1.323,6.771,4.892,9.16,8.43c-1.364-4.19-4.676-8.27-6.971-10.619L209.946,142.842z"/>
	</g>
	<g>
		<path class="st1" d="M176.658,177.598c-0.417,0-0.841-0.086-1.244-0.267c-1.31-0.583-2.034-1.97-1.762-3.373    c2.704-13.955,2.285-24.423-1.094-27.319c-0.636-0.545-0.864-1.428-0.574-2.212c0.291-0.785,1.039-1.306,1.876-1.306h9.45    c1.073,0,1.955,0.848,1.998,1.92c0.036,0.895,0.796,22.019-6.239,31.351C178.481,177.171,177.584,177.598,176.658,177.598z     M177.674,147.121c2.326,5.215,2.063,13.453,0.967,21.281c2.463-7.345,2.716-17.18,2.702-21.281H177.674z"/>
	</g>
	<g>
		<path class="st1" d="M215.294,181.034c-0.155,0-0.307-0.011-0.451-0.033c-1.173-0.178-2.029-1.02-2.182-2.144    c-0.935-6.899-3.416-14.389-7.573-14.718c-0.909-0.072-1.655-0.75-1.813-1.648c-0.158-0.898,0.313-1.79,1.143-2.167l8.604-3.909    c0.961-0.438,2.097-0.051,2.594,0.882c0.281,0.53,6.851,13.087,2.758,21.866C217.783,180.432,216.435,181.034,215.294,181.034z     M210.076,162.147c2.915,2.508,4.621,6.96,5.615,11.113c0.194-4.403-1.473-9.387-2.796-12.393L210.076,162.147z"/>
	</g>
	<g>
		<path class="st1" d="M208,135.255h-98c-4.411,0-8-3.589-8-8s3.589-8,8-8h98c4.411,0,8,3.589,8,8S212.411,135.255,208,135.255z     M110,123.255c-2.206,0-4,1.794-4,4s1.794,4,4,4h98c2.206,0,4-1.794,4-4s-1.794-4-4-4H110z"/>
	</g>
	<g>
		<path class="st1" d="M159,206.755h-4c-1.705,0-3.356-0.5-4.773-1.445l-1.395-0.93c-2.399-1.6-3.832-4.276-3.832-7.16v-2.219    c0-0.216,0.008-0.431,0.024-0.646l4.981-66.749c0.077-1.044,0.947-1.851,1.994-1.851h10c1.047,0,1.917,0.807,1.994,1.851    l4.981,66.754c0.017,0.209,0.024,0.425,0.024,0.641v2.219c0,2.884-1.433,5.561-3.832,7.16l-1.395,0.93    C162.356,206.255,160.705,206.755,159,206.755z M153.856,129.755l-4.844,64.903c-0.009,0.118-0.013,0.23-0.013,0.343v2.219    c0,1.543,0.767,2.976,2.051,3.832l1.395,0.93c0.759,0.506,1.642,0.773,2.555,0.773h4c0.913,0,1.796-0.268,2.555-0.773l1.395-0.93    c1.284-0.856,2.051-2.289,2.051-3.832v-2.219c0-0.112-0.004-0.225-0.013-0.337l-4.844-64.909H153.856z"/>
	</g>
	<g>
		<path class="st6" d="M200,138.255h-82c-2.209,0-4-1.791-4-4v-14c0-2.209,1.791-4,4-4h82c2.209,0,4,1.791,4,4v14    C204,136.464,202.209,138.255,200,138.255z"/>
	</g>
	<g>
		<path class="st1" d="M200,140.255h-82c-3.309,0-6-2.691-6-6v-14c0-3.309,2.691-6,6-6h82c3.309,0,6,2.691,6,6v14    C206,137.563,203.309,140.255,200,140.255z M118,118.255c-1.103,0-2,0.897-2,2v14c0,1.103,0.897,2,2,2h82c1.103,0,2-0.897,2-2v-14    c0-1.103-0.897-2-2-2H118z"/>
	</g>
</g>
</svg>
