<svg id="Icon_Set" enable-background="new 0 0 256 256" height="512" viewBox="0 0 256 256" width="512" xmlns="http://www.w3.org/2000/svg"><path id="XMLID_296_" d="m182.307 121.315v91.21h-109.92c0-.609-.006-91.733.01-92.34.33-12.71 6.07-24.06 15-31.84 7.69-6.7 17.72-10.75 28.71-10.75h22.48c11 0 21.03 4.05 28.72 10.76 9.19 8.01 15 19.8 15 32.96z" fill="#b76c6c"/><path id="XMLID_295_" d="m182.307 121.315v91.21h-15v-124.17c9.19 8.01 15 19.8 15 32.96z" fill="#965959"/><path id="XMLID_292_" d="m233.163 122.302c-16.554 55.862-15.688 53.152-16.086 53.953-2.921 5.87-11.142 6.487-14.908 1.126-.504-.718 2.359 5.343-44.087-95.146l69.648 28.468c4.846 1.543 7.35 6.888 5.433 11.599z" fill="#b76c6c"/><path id="XMLID_291_" d="m163.638 250.668h-72.548c-2.761 0-5-2.239-5-5v-5.356c0-2.761 2.239-5 5-5h72.549c2.761 0 5 2.239 5 5v5.356c-.001 2.762-2.239 5-5.001 5z" fill="#ff4a73"/><path id="XMLID_290_" d="m106.094 250.665h-15c-2.77 0-5-2.24-5-5v-5.35c0-2.76 2.23-5 5-5h15c-2.77 0-5 2.24-5 5v5.35c0 2.76 2.23 5 5 5z" fill="#f973a3"/><path id="XMLID_289_" d="m168.634 240.315v5.35c0 2.76-2.23 5-5 5h-15c2.77 0 5-2.24 5-5v-5.35c0-2.76-2.23-5-5-5h15c2.77 0 5 2.24 5 5z" fill="#ea2a6a"/><path id="XMLID_288_" d="m87.397 88.345v124.18h-15v-92.34c.33-12.71 6.07-24.06 15-31.84z" fill="#c98585"/><path id="XMLID_287_" d="m165.827 235.312h-76.96c-13.982 0-25.316-11.334-25.316-25.316 0-38.031 29.81-64.935 63.796-64.935 35.233 0 63.796 28.562 63.796 63.796 0 16.268-12.116 26.455-25.316 26.455z" fill="#ffbb98"/><path id="XMLID_286_" d="m191.156 208.853c0 16.267-12.117 26.46-25.32 26.46h-15c13.98 0 25.32-11.34 25.32-25.32 0-18.818-6.906-34.466-18.69-46.25-9.88-9.88-22.99-16.53-37.61-18.24 2.46-.29 4.96-.44 7.5-.44 17.62 0 33.57 7.14 45.11 18.68 11.55 11.55 18.69 27.49 18.69 45.11z" fill="#ffaa80"/><path id="XMLID_285_" d="m103.892 235.315h-15c-13.98 0-25.31-11.34-25.31-25.32 0-38.027 29.806-64.93 63.79-64.93 2.54 0 5.04.15 7.5.44-30.397 3.558-56.29 28.95-56.29 64.49 0 13.98 11.33 25.32 25.31 25.32z" fill="#ffcaa6"/><path id="XMLID_284_" d="m130.689 199.278c-16.442 0-24.038-8.966-24.038-20 0-9.736 4.189-13.379 10-13.379h24.038c11.913 0 10 14.673 10 13.379 0 11.046-8.954 20-20 20z" fill="#b76c6c"/><path id="XMLID_283_" d="m136.174 198.505c-1.74.5-3.58.77-5.48.77-16.449 0-24.04-8.962-24.04-20 0-9.726 4.175-13.38 10-13.38h15c-5.747 0-10 3.573-10 13.38 0 9.15 6.14 16.86 14.52 19.23z" fill="#c98585"/><path id="XMLID_282_" d="m22.172 122.162c16.554 55.862 15.688 53.152 16.087 53.953 2.921 5.87 11.141 6.487 14.908 1.126.504-.718-2.359 5.344 44.087-95.147l-69.648 28.468c-4.847 1.544-7.351 6.889-5.434 11.6z" fill="#b76c6c"/><path id="XMLID_325_" d="m196.667 38.337h-133.979v-18.002c0-8.284 6.716-15 15-15h103.979c8.284 0 15 6.716 15 15z" fill="#ff4a73"/><path id="XMLID_324_" d="m92.687 5.335c-8.28 0-15 6.72-15 15v18h-15v-18c0-8.28 6.72-15 15-15z" fill="#f973a3"/><path id="XMLID_323_" d="m196.667 20.335v18h-15v-18c0-8.28-6.72-15-15-15h15c8.28 0 15 6.72 15 15z" fill="#ea2a6a"/><g fill="#5f266d"><path id="XMLID_63_" d="m94.957 116.835c.83-.77 8.34-7.33 18.15.27 4.124 3.22 9.149-3.042 4.9-6.32-12.44-9.64-24.15-4.03-28.59.29-3.756 3.638 1.698 9.362 5.54 5.76z"/><path id="XMLID_98_" d="m103.347 120.745c-3.93 0-7.12 3.19-7.12 7.13 0 3.93 3.19 7.12 7.12 7.12 3.94 0 7.13-3.19 7.13-7.12 0-3.94-3.19-7.13-7.13-7.13z"/><path id="XMLID_100_" d="m142.567 116.835c.82-.77 8.33-7.33 18.15.27 4.078 3.228 9.165-3.022 4.89-6.32-12.44-9.64-24.14-4.03-28.59.29-3.745 3.627 1.693 9.377 5.55 5.76z"/><path id="XMLID_101_" d="m150.947 120.745c-3.93 0-7.12 3.19-7.12 7.13 0 3.93 3.19 7.12 7.12 7.12 3.94 0 7.13-3.19 7.13-7.12 0-3.94-3.19-7.13-7.13-7.13z"/><path id="XMLID_114_" d="m229.447 106.945-68.82-28.12-.04-.02c-6.5-3.33-13.86-5.21-21.66-5.21h-22.49c-8.2 0-15.92 2.08-22.67 5.75l-.05.02-67.16 27.44c-6.967 2.329-10.427 9.995-7.84 16.66 16.8 56.7 15.703 53.24 16.29 54.43 4.292 8.607 16.274 9.471 21.77 1.64.718-1.031-.046.48 11.95-25.47v21.34c-13.676 24-13.412 56.87 13.87 63.15-.22 1.14-.17 1.306-.17 7.11 0 4.97 4.03 9 9 9h72.54c4.97 0 9-4.03 9-9 0-5.806.05-5.98-.17-7.12 27.116-6.267 27.571-39.044 13.84-63.14v-22.57c12.594 27.251 11.853 25.799 12.59 26.85 5.512 7.832 17.499 6.937 21.76-1.65.57-1.141-.541 2.372 16.29-54.43 2.609-6.72-.903-14.344-7.83-16.66zm-128.72-22.1c4.82-2.09 10.13-3.25 15.71-3.25h22.49c5.86 0 11.43 1.28 16.44 3.58l23.27 50.35v28.66c-12.44-14.17-30.67-23.12-50.96-23.12-20.28 0-38.52 8.95-50.95 23.12v-27.43zm-50.5 90.1c-2.022 2.878-6.479 2.546-8.05-.61-.228-.456-15.778-53.22-15.97-53.68-1.038-2.554.332-5.452 2.94-6.28.124-.034 60.418-24.68 60.54-24.73-.107.233-39.312 85.091-39.46 85.3zm114.74 70.72c0 .55-.44 1-1 1h-72.54c-.56 0-1-.45-1-1v-5.35c0-.55.44-1 1-1h72.54c.56 0 1 .45 1 1zm1.19-14.35c-3.695 0-73.189 0-76.96 0-26.183 0-25.737-32.193-12.47-53.71 10.53-17.11 29.43-28.54 50.95-28.54s40.43 11.43 50.96 28.54c13.389 21.748 13.673 53.71-12.48 53.71zm63.5-110.15c-.084.284-15.698 53.045-15.83 53.31-1.57 3.156-6.023 3.495-8.05.61-.168-.238-39.348-85.036-39.47-85.3 15.761 6.44 1.021.416 60.24 24.62 2.983 1.193 4.266 3.297 3.11 6.76z"/><path id="XMLID_124_" d="m158.387 200.095c0 15.553-22.4 18.254-26.08 3.15 12.64-.67 22.72-11.16 22.72-23.97 0-12.097-6.163-17.38-14-17.38h-24.04c-7.572 0-14 4.991-14 17.38 0 11.95 8.77 21.88 20.22 23.7-3.431 15.514-26.14 12.688-26.14-2.88 0-5.285-8-5.293-8 0 0 20.635 26.834 29.205 38.66 12.1 11.714 16.944 38.66 8.747 38.66-12.1 0-5.285-8-5.293-8 0zm-47.4-20.82c0-1.501-.963-9.38 6-9.38h24.04c6.726 0 6 7.3 6 9.38 0 21.471-36.04 21.439-36.04 0z"/><path id="XMLID_128_" d="m66.667 68.335v-26h15v26c0 5.285 8 5.292 8 0v-26h14v26c0 5.285 8 5.292 8 0v-26h14v26c0 5.285 8 5.292 8 0v-26h14v26c0 5.285 8 5.292 8 0v-26h14v26c0 5.285 8 5.292 8 0v-26h15v26c0 5.285 8 5.292 8 0 0-4.68 0-42.632 0-48 0-10.48-8.52-19-19-19h-103.98c-10.48 0-19 8.52-19 19 0 6.76-.02 13.678-.02 48 0 5.285 8 5.292 8 0zm.02-48c0-6.07 4.94-11 11-11h103.98c6.07 0 11 4.93 11 11v14h-125.98z"/><path id="XMLID_132_" d="m176.667 18.335h-4c-5.285 0-5.293 8 0 8h4c5.285 0 5.293-8 0-8z"/><path id="XMLID_133_" d="m157.667 18.335h-20c-5.285 0-5.293 8 0 8h20c5.285 0 5.293-8 0-8z"/></g></svg>