<svg id="Icon_Set" enable-background="new 0 0 256 256" height="512" viewBox="0 0 256 256" width="512" xmlns="http://www.w3.org/2000/svg"><path d="m74.016 66.937c-.173-5.057-6.958-6.695-9.369-2.246-8.454 15.6-1.009 30.653-1.009 30.653l19.476-5.399c-6.878-3.432-8.791-14.019-9.098-23.008z" fill="#ff4a73"/><path d="m209.307 129.065c-11.84-3.74-21.94.1-26.94 2.75l6.5 18.03v-.01c3.22-6.03 12.13-9.34 20.01-11.14 4.93-1.13 5.26-8.1.43-9.63z" fill="#ff4a73"/><path d="m158.056 70.109c-17.254 4.138-23.475 19.737-23.475 19.737l17.032 10.879c-2.044-7.411 4.553-15.909 11.034-22.146 3.646-3.509.329-9.65-4.591-8.47z" fill="#ff4a73"/><path d="m17.581 108.038c-2.714-4.27-9.392-2.24-9.213 2.817.627 17.732 14.679 26.928 14.679 26.928l14.046-14.532c-7.669.531-14.687-7.623-19.512-15.213z" fill="#ff4a73"/><path d="m165.196 122.272c-4.5-.437-8.088-3.797-8.821-8.258-3.811-23.197-27.267-31.656-45.039-16.298-3.733 3.226-9.212 3.218-12.946-.006-17.622-15.219-40.835-7.038-44.933 15.752-.796 4.425-4.487 7.745-8.967 8.133-10.644.92-19.837 8.608-22.937 21.067-4.673 18.772 6.013 41.856 23.378 48.638 4.32 1.687 7.072 6.069 6.473 10.667-1.003 7.7.164 15.577 3.509 22.857 7.013 15.261 22.62 24.732 39.415 24.732h17.567c17.309 0 33.301-10.067 40.015-26.022 2.732-6.492 3.767-13.416 3.106-20.236-.468-4.828 2.643-9.175 7.288-10.574 10.687-3.219 19.558-12.916 23.851-24.712 0 0 .001 0 .001-.001 8.197-22.519-2.269-43.925-20.96-45.739z" fill="#b76c6c"/><path d="m78.65 176.271c10.879-18.843 38.077-18.843 48.956 0l4.875 8.444 4.875 8.444c10.879 18.843-2.72 42.397-24.478 42.397h-9.75-9.75c-21.758 0-35.357-23.554-24.478-42.397l4.875-8.444z" fill="#87828e"/><ellipse cx="83.115" cy="125.814" fill="#87828e" rx="15.224" ry="22.59" transform="matrix(.94 -.342 .342 .94 -38.019 36.014)"/><ellipse cx="50.719" cy="157.371" fill="#87828e" rx="15.224" ry="22.59" transform="matrix(.94 -.342 .342 .94 -50.766 26.838)"/><ellipse cx="126.622" cy="125.814" fill="#87828e" rx="22.59" ry="15.224" transform="matrix(.342 -.94 .94 .342 -34.912 201.769)"/><ellipse cx="158.694" cy="158.017" fill="#87828e" rx="22.59" ry="15.224" transform="matrix(.342 -.94 .94 .342 -44.07 253.096)"/><path d="m108.381 235.56h-15c-21.76 0-35.36-23.56-24.48-42.4l4.87-8.45 4.88-8.44c6.88-11.92 20.3-16.3 31.98-13.13-6.78 1.83-12.98 6.21-16.98 13.13l-4.88 8.44-4.87 8.45c-10.88 18.84 2.72 42.4 24.48 42.4z" fill="#a4a4a5"/><path d="m94.211 145.03c-.99.88-2.12 1.56-3.37 2.01-7.9 2.88-17.76-4.29-22.03-16.02-4.27-11.72-1.32-23.56 6.58-26.43 3.7-1.35 7.84-.49 11.63 2.01-5.28 4.61-6.8 14.56-3.21 24.42 2.27 6.23 6.11 11.18 10.4 14.01z" fill="#a4a4a5"/><path d="m61.811 176.59c-.99.88-2.12 1.56-3.37 2.01-7.9 2.88-17.76-4.3-22.03-16.02-4.26-11.73-1.32-23.56 6.58-26.44 3.7-1.34 7.84-.49 11.62 2.02-5.27 4.62-6.78 14.56-3.2 24.42 2.27 6.22 6.11 11.17 10.4 14.01z" fill="#a4a4a5"/><path d="m127.311 120.61c-3.58 9.86-2.07 19.81 3.21 24.42-3.79 2.5-7.92 3.36-11.63 2.01-7.9-2.87-10.84-14.71-6.58-26.43 4.27-11.73 14.14-18.9 22.04-16.02 1.25.46 2.38 1.14 3.37 2.01-4.29 2.83-8.14 7.78-10.41 14.01z" fill="#a4a4a5"/><path d="m159.391 152.81c-3.59 9.86-2.07 19.81 3.21 24.42-3.79 2.5-7.93 3.36-11.63 2.01-7.9-2.87-10.85-14.71-6.58-26.43s14.13-18.9 22.03-16.02c1.25.45 2.38 1.13 3.37 2.01-4.29 2.84-8.13 7.79-10.4 14.01z" fill="#a4a4a5"/><path d="m241.437 48.008h-31.232c-5.523 0-10-4.477-10-10v-7.901c0-5.523 4.477-10 10-10h31.232c5.523 0 10 4.477 10 10v7.901c0 5.523-4.477 10-10 10z" fill="#ea2a6a"/><path d="m196.509 75.045c-.153-.42-.287-.803-.392-1.137-.115.334-.239.717-.401 1.137-1.758 4.825-6.63 15.095-16.241 15.458 9.621.363 14.493 10.633 16.251 15.458.153.42.287.803.392 1.137.115-.334.239-.717.401-1.137 1.758-4.825 6.63-15.095 16.241-15.458-9.621-.364-14.493-10.634-16.251-15.458z" fill="#f9d335"/><path d="m34.882 18.843c-.176-.485-.331-.926-.452-1.312-.132.386-.276.827-.463 1.312-2.029 5.568-7.652 17.421-18.744 17.84 11.103.419 16.726 12.272 18.755 17.84.176.485.331.926.452 1.312.132-.386.276-.827.463-1.312 2.029-5.568 7.652-17.421 18.744-17.84-11.103-.419-16.726-12.272-18.755-17.84z" fill="#f9d335"/><path d="m21.602 63.264c-.153-.42-.287-.803-.392-1.137-.115.334-.239.717-.401 1.137-1.758 4.825-6.63 15.095-16.241 15.458 9.621.363 14.493 10.633 16.251 15.458.153.42.287.803.392 1.137.115-.334.239-.717.401-1.137 1.758-4.825 6.63-15.095 16.241-15.458-9.621-.363-14.493-10.634-16.251-15.458z" fill="#f9d335"/><path d="m221.243 48.008h-11.04c-5.52 0-10-4.48-10-10v-7.9c0-5.52 4.48-10 10-10h11.04c-5.52 0-10 4.48-10 10v7.9c0 5.52 4.48 10 10 10z" fill="#ff4a73"/><path d="m201.643 96.628c-2.61 3.2-4.25 6.94-5.12 9.33-.17.42-.29.8-.41 1.14-.1-.34-.23-.72-.39-1.14-1.76-4.82-6.63-15.09-16.25-15.46 9.61-.36 14.49-10.63 16.24-15.45.17-.42.29-.81.4-1.14.11.33.24.72.4 1.14.86 2.39 2.51 6.13 5.12 9.33-2.64 3.24-6.28 5.94-11.12 6.12 4.84.19 8.48 2.88 11.13 6.13z" fill="#f9d335"/><path d="m39.953 44.848c-2.52 3.42-4.16 7.18-5.06 9.67-.19.49-.33.93-.46 1.32-.12-.39-.28-.83-.46-1.32-2.02-5.56-7.65-17.42-18.75-17.84 11.09-.41 16.72-12.27 18.74-17.83.19-.49.33-.93.47-1.32.12.39.27.83.45 1.32.91 2.49 2.54 6.24 5.06 9.67-3.1 4.22-7.56 7.93-13.68 8.16 6.13.23 10.59 3.95 13.69 8.17z" fill="#f9d335"/><path d="m26.733 84.858c-2.61 3.2-4.25 6.93-5.12 9.32-.16.42-.29.8-.4 1.14-.11-.34-.24-.72-.39-1.14-1.76-4.82-6.63-15.09-16.26-15.46 9.62-.36 14.49-10.63 16.25-15.45.16-.42.28-.81.4-1.14.1.33.24.72.39 1.14.87 2.39 2.52 6.13 5.13 9.33-2.65 3.24-6.29 5.94-11.13 6.12 4.85.19 8.49 2.89 11.13 6.14z" fill="#f9d335"/><path d="m221.243 48.008h-11.04c-5.52 0-10-4.48-10-10v-7.9c0-5.52 4.48-10 10-10h11.04c-5.52 0-10 4.48-10 10v7.9c0 5.52 4.48 10 10 10z" fill="#ff4a73"/><path d="m201.643 96.628c-2.61 3.2-4.25 6.94-5.12 9.33-.17.42-.29.8-.41 1.14-.1-.34-.23-.72-.39-1.14-1.76-4.82-6.63-15.09-16.25-15.46 9.61-.36 14.49-10.63 16.24-15.45.17-.42.29-.81.4-1.14.11.33.24.72.4 1.14.86 2.39 2.51 6.13 5.12 9.33-.664.816-1.392 1.597-2.187 2.312-2.291 2.063-2.29 5.557.002 7.619.797.716 1.527 1.5 2.195 2.319z" fill="#f9e27d"/><path d="m39.953 44.848c-2.52 3.42-4.16 7.18-5.06 9.67-.19.49-.33.93-.46 1.32-.12-.39-.28-.83-.46-1.32-2.02-5.56-7.65-17.42-18.75-17.84 11.09-.41 16.72-12.27 18.74-17.83.19-.49.33-.93.47-1.32.12.39.27.83.45 1.32.91 2.49 2.54 6.24 5.06 9.67-1.125 1.532-2.43 2.996-3.928 4.252-2.461 2.062-2.463 5.753-.002 7.814 1.504 1.259 2.812 2.728 3.94 4.264z" fill="#f9e27d"/><path d="m26.733 84.858c-2.61 3.2-4.25 6.93-5.12 9.32-.16.42-.29.8-.4 1.14-.11-.34-.24-.72-.39-1.14-1.76-4.82-6.63-15.09-16.26-15.46 9.62-.36 14.49-10.63 16.25-15.45.16-.42.28-.81.4-1.14.1.33.24.72.39 1.14.87 2.39 2.52 6.13 5.13 9.33-.667.816-1.398 1.598-2.194 2.313-2.292 2.06-2.296 5.554-.006 7.616.8.721 1.532 1.508 2.2 2.331z" fill="#f9e27d"/><g fill="#5f266d"><path d="m131.072 174.269c-5.832-10.102-16.277-16.132-27.941-16.132-11.665 0-22.11 6.031-27.942 16.132l-9.75 16.887c-5.832 10.102-5.832 22.164 0 32.266 5.832 10.101 16.277 16.132 27.941 16.132h19.501c24.835 0 40.37-26.869 27.941-48.397zm-18.191 57.285h-19.501c-8.771 0-16.627-4.535-21.014-12.132-4.386-7.597-4.386-16.668 0-24.265l9.75-16.887c4.387-7.597 12.242-12.132 21.015-12.132 8.771 0 16.627 4.535 21.014 12.132l9.75 16.887c9.343 16.185-2.328 36.397-21.014 36.397z"/><path d="m102.577 138.107c1.433-5.758.938-12.459-1.396-18.869-8.415-23.125-32.503-25.894-37.524-5.72-1.434 5.757-.938 12.458 1.396 18.87 8.559 23.513 32.577 25.597 37.524 5.719zm-17.161-27.752c3.474 2.525 6.479 6.76 8.247 11.618 1.769 4.858 2.188 10.034 1.151 14.201-3.295 13.225-17.085 7.649-22.245-6.524-5.13-14.099 1.83-27.311 12.847-19.295z"/><path d="m70.182 169.664c2.962-11.905-2.526-27.001-12.456-34.222-16.551-12.038-33.624 4.999-25.069 28.502 8.558 23.515 32.577 25.595 37.525 5.72zm-13.103 5.174c-5.716 2.084-13.458-4.162-16.905-13.63-5.174-14.215 1.881-27.274 12.847-19.296 3.474 2.525 6.479 6.76 8.247 11.618 3.469 9.53 1.435 19.262-4.189 21.308z"/><path d="m122.594 151.688c15.197 0 27.647-21.478 23.49-38.171-4.975-19.989-29.04-17.586-37.525 5.72-5.895 16.199.541 32.451 14.035 32.451zm-6.518-29.714c5.11-14.037 18.933-19.814 22.245-6.524 3.474 13.958-8.968 31.141-18.056 27.832-5.667-2.063-7.631-11.847-4.189-21.308z"/><path d="m167.791 133.028c-10.382-3.781-22.245 4.914-27.159 18.412-8.583 23.587 8.564 40.505 25.069 28.502 16.247-11.813 18.197-41.052 2.09-46.914zm-6.795 40.444c-10.995 8.003-18.016-5.093-12.847-19.295 1.769-4.858 4.774-9.093 8.247-11.619 15.93-11.582 20.514 19.344 4.6 30.914z"/><path d="m210.514 125.249c-11.249-3.553-21.039-.998-27.124 1.646-4.75-4.929-10.895-7.935-17.805-8.606 1 0-4.414.223-5.261-4.925-.795-4.84-2.432-9.252-4.744-13.066-.023-.213-.05-.426-.109-.639-1.213-4.395 2.321-10.858 9.95-18.2 6.575-6.324.579-17.373-8.297-15.242-15.014 3.601-22.491 14.831-25.127 19.781-8.035-.334-16.306 2.668-23.274 8.69-2.233 1.929-5.478 1.925-7.717-.007-4.756-4.107-10.126-6.809-15.614-8.007-.158-.11-.313-.221-.49-.31-4.079-2.036-6.525-8.984-6.887-19.566-.312-9.117-12.536-12.041-16.883-4.015-7.164 13.219-4.168 25.955-2.233 31.479-4.729 4.687-8.044 11.078-9.376 18.49-.473 2.626-2.683 4.623-5.375 4.855-2.552.221-5.004.792-7.33 1.651-4.545.317-10.179-4.432-15.859-13.368-4.896-7.704-16.909-4.015-16.586 5.104.53 14.987 9.527 24.433 14.008 28.232-6.857 21.143 5.178 48.017 25.097 55.798 2.688 1.05 4.317 3.691 3.961 6.425-3.593 27.627 18.243 52.105 46.892 52.105h17.567c28.341 0 49.715-23.686 47.102-50.644-.278-2.869 1.556-5.484 4.46-6.358 16.997-5.119 30.215-25.031 29.448-45.654 2.43-3.434 8.35-6.362 16.864-8.306 8.9-2.04 9.44-14.588.742-17.343zm-51.524-51.252c.962-.239 1.614.996.885 1.698-6.021 5.794-9.885 11.242-11.604 16.301-2.405-1.883-5.02-3.352-7.96-4.398 2.762-4.335 8.563-11.175 18.679-13.601zm-90.824-7.403c.476-.888 1.821-.521 1.854.478.281 8.21 1.707 14.648 4.239 19.292-2.999.496-5.76 1.388-8.555 2.868-1.337-5.014-2.38-13.703 2.462-22.638zm-55.799 44.117c-.035-.996 1.298-1.381 1.84-.53 4.435 6.977 8.961 11.82 13.529 14.529-2.231 1.971-4.189 4.305-5.827 6.935-3.699-3.592-9.176-10.609-9.542-20.934zm170.032 55.931c-3.996 10.981-12.138 19.506-21.246 22.25-6.502 1.958-10.757 8.179-10.116 14.79 2.15 22.187-15.452 41.872-39.139 41.872h-17.567c-15.482 0-29.526-8.793-35.78-22.402-2.992-6.509-4.091-13.657-3.178-20.669.833-6.388-2.862-12.519-8.984-14.91-15.212-5.942-25.197-26.888-20.95-43.946 2.567-10.32 10-17.236 19.399-18.048 6.284-.544 11.448-5.236 12.559-11.41 3.549-19.742 23.063-26.662 38.382-13.432 5.269 4.55 12.913 4.554 18.176.005 15.433-13.334 35.169-6.219 38.476 13.92 1.022 6.216 6.113 10.982 12.382 11.591 16.206 1.57 24.787 20.606 17.586 40.389zm25.589-31.849c-6.999 1.599-12.514 3.81-16.526 6.598-.767-2.77-1.826-5.406-3.184-7.85 4.883-1.816 11.927-3.159 19.823-.665.953.302.87 1.691-.113 1.917z"/><path d="m241.438 16.107h-31.232c-7.703 0-13.97 6.254-13.998 13.951h-51.854c-.575-1.655-2.175-2.802-4.024-2.677-5.072.329-20.018-.4-22.14-7.826-.607-2.123-2.818-3.356-4.944-2.747-5.535 1.582-2.268 9.307 3.345 13.25h-11.867c-2.209 0-4 1.791-4 4s1.791 4 4 4h11.872c-5.634 3.957-8.873 11.671-3.349 13.25 2.12.606 4.337-.62 4.944-2.747 2.122-7.425 17.072-8.156 22.138-7.825 1.831.115 3.447-1.023 4.027-2.678h51.853c.027 7.697 6.294 13.951 13.998 13.951h31.232c7.72 0 14-6.28 14-14v-7.901c-.001-7.721-6.282-14.001-14.001-14.001zm6 21.901c0 3.309-2.691 6-6 6h-31.232c-3.309 0-6-2.691-6-6v-7.901c0-3.309 2.691-6 6-6h31.232c3.309 0 6 2.691 6 6z"/><circle cx="83.117" cy="12.071" r="5.626"/><circle cx="93.443" cy="53.088" r="5.626"/><path d="m66.238 42.309c3.107 0 5.626-2.519 5.626-5.626s-2.519-5.626-5.626-5.626-5.626 2.519-5.626 5.626 2.518 5.626 5.626 5.626z"/><path d="m212.911 86.505c-7.293-.275-11.271-9.064-12.644-12.83-.001 0-.001-.001-.001-.001-.129-.354-.243-.677-.331-.959-.516-1.649-2.032-2.782-3.761-2.807-.02 0-.038 0-.059 0-1.704 0-3.225 1.082-3.781 2.697l-.085.25c-.078.229-.162.479-.293.82-1.372 3.766-5.35 12.555-12.634 12.83-2.148.081-3.849 1.847-3.849 3.997s1.7 3.916 3.85 3.997c7.292.275 11.271 9.064 12.641 12.823.131.361.247.69.338.978.52 1.648 2.039 2.776 3.767 2.796h.048c1.709 0 3.231-1.086 3.785-2.707l.073-.215c.078-.233.164-.491.301-.845 1.373-3.766 5.351-12.555 12.635-12.83 2.148-.081 3.849-1.847 3.849-3.997s-1.7-3.916-3.849-3.997zm-16.792 11.053c-1.516-2.483-3.497-5.032-6.022-7.057 2.526-2.027 4.507-4.577 6.019-7.055 1.516 2.483 3.497 5.033 6.022 7.058-2.527 2.027-4.507 4.577-6.019 7.054z"/><path d="m15.072 40.68c7.828.295 13.217 8.962 15.541 16.353.524 1.667 2.068 2.802 3.816 2.802 3.158 0 3.832-2.934 4.221-3.942 1.627-4.463 6.358-14.881 15.138-15.212 5.092-.192 5.094-7.802-.001-7.994-8.788-.332-13.521-10.749-15.147-15.212-.364-1.001-1.006-3.942-4.21-3.942-3.17 0-3.837 2.943-4.222 3.943-1.626 4.463-6.355 14.88-15.137 15.212-5.091.19-5.093 7.8.001 7.992zm19.356-13.349c1.893 3.286 4.5 6.768 7.961 9.354-3.463 2.588-6.069 6.073-7.956 9.35-1.893-3.286-4.499-6.768-7.96-9.354 3.462-2.589 6.068-6.073 7.955-9.35z"/><path d="m17.392 96.509c.517 1.654 2.052 2.807 3.819 2.807 2.937 0 3.674-2.497 4.158-3.768 1.373-3.766 5.351-12.555 12.635-12.83 5.092-.192 5.092-7.802 0-7.994-6.542-.247-11.029-7.634-12.979-13.801-.526-1.668-2.073-2.797-3.814-2.797-2.948 0-3.671 2.501-4.159 3.768-1.373 3.766-5.351 12.555-12.635 12.83-5.092.192-5.094 7.802.001 7.994 6.496.246 11.048 7.607 12.974 13.791zm3.816-24.843c1.516 2.483 3.497 5.032 6.022 7.057-2.526 2.027-4.507 4.577-6.019 7.055-1.516-2.483-3.497-5.033-6.022-7.058 2.527-2.027 4.507-4.577 6.019-7.054z"/><path d="m118.542 216.667h-2.667c-2.209 0-4 1.791-4 4s1.791 4 4 4h2.667c2.209 0 4-1.791 4-4s-1.791-4-4-4z"/><path d="m100.875 216.667h-10c-2.209 0-4 1.791-4 4s1.791 4 4 4h10c2.209 0 4-1.791 4-4s-1.791-4-4-4z"/></g></svg>