<?xml version="1.0" encoding="utf-8"?>
<!-- Generator: Adobe Illustrator 22.1.0, SVG Export Plug-In . SVG Version: 6.00 Build 0)  -->
<svg xmlns="http://www.w3.org/2000/svg" xmlns:xlink="http://www.w3.org/1999/xlink" version="1.1" id="Layer_1" x="0px" y="0px" viewBox="0 0 256 256" style="enable-background:new 0 0 256 256;" xml:space="preserve" width="512" height="512">
<style type="text/css">
	.st0{fill:#F9CFCF;}
	.st1{fill:#3762CC;}
	.st2{fill:#F9A7A7;}
	.st3{fill:#E0EBFC;}
	.st4{fill:#4671C6;}
	.st5{fill:#6BDDDD;}
	.st6{fill:#FFEA92;}
	.st7{fill:#A4C9FF;}
	.st8{fill:#EAA97D;}
	.st9{fill:#B9BEFC;}
</style>
<g>
	<g>
		<path class="st0" d="M194.759,81.414c0.001-0.138,0.007-0.272,0.007-0.411c0.001-0.394-0.038-0.777-0.106-1.15    c0-0.002,0-0.009,0-0.009l-0.001,0.004c-0.054-0.292-0.124-0.579-0.215-0.856c-0.002-0.01-0.005-0.026-0.005-0.026l-0.002,0.005    c-0.781-2.352-2.888-4.052-5.377-4.072c-3.15-0.019-5.737,2.666-5.749,6.012c0,0.105-0.003,0.206-0.004,0.311    c-0.041,0.476-0.587,6.695-1.165,10.27c-10.86,54.818-60.733,57.972-60.733,57.972l0.185,7.882    c-0.151,0.585-0.223,1.205-0.198,1.844c0.022,0.566,0.122,1.108,0.279,1.623l0.302,12.88c0,0,65.779-6.427,72.342-76.137    l0.005,0.006c0.002-0.044,0.004-0.091,0.005-0.136c0.301-3.232,0.481-6.592,0.514-10.101l0.01,0.005    C195.014,85.069,194.905,82.953,194.759,81.414z"/>
	</g>
	<g>
		<path class="st0" d="M194.759,81.414c0.001-0.138,0.007-0.272,0.007-0.411c0.001-0.394-0.038-0.777-0.106-1.15    c0-0.002,0-0.009,0-0.009l-0.001,0.004c-0.054-0.292-0.124-0.579-0.215-0.856c-0.002-0.01-0.005-0.026-0.005-0.026l-0.002,0.005    c-0.781-2.352-2.888-4.052-5.377-4.072c-3.15-0.019-5.737,2.666-5.749,6.012c0,0.105-0.003,0.206-0.004,0.311    c-0.041,0.476-0.587,6.695-1.165,10.27c-10.86,54.818-60.733,57.972-60.733,57.972l0.185,7.882    c-0.151,0.585-0.223,1.205-0.198,1.844c0.022,0.566,0.122,1.108,0.279,1.623l0.302,12.88c0,0,65.779-6.427,72.342-76.137    l0.005,0.006c0.002-0.044,0.004-0.091,0.005-0.136c0.301-3.232,0.481-6.592,0.514-10.101l0.01,0.005    C195.014,85.069,194.905,82.953,194.759,81.414z"/>
	</g>
	<g>
		<path class="st1" d="M121.976,175.693c-0.486,0-0.959-0.178-1.326-0.503c-0.417-0.369-0.66-0.894-0.673-1.45l-0.296-12.624    c-0.164-0.61-0.26-1.231-0.284-1.849c-0.028-0.718,0.036-1.434,0.191-2.133l-0.179-7.624c-0.025-1.072,0.801-1.973,1.871-2.043    c0.122-0.008,12.313-0.878,25.602-8.265c17.724-9.852,28.927-26.035,33.298-48.1c0.53-3.287,1.045-9.039,1.128-9.984l0.003-0.217    c0.008-2.209,0.86-4.267,2.399-5.791c1.454-1.438,3.361-2.203,5.362-2.212c3.226,0.026,6.106,2.15,7.215,5.303    c0.035,0.084,0.064,0.172,0.088,0.263c0.09,0.287,0.167,0.591,0.229,0.908c0.017,0.067,0.029,0.136,0.039,0.207    c0.084,0.485,0.125,0.966,0.124,1.431l-0.005,0.327c0.196,2.128,0.226,4.191,0.087,6.133c-0.002,0.026-0.004,0.051-0.007,0.077    c-0.038,3.375-0.213,6.76-0.521,10.063c-0.002,0.053-0.007,0.105-0.013,0.158c-3.476,36.826-23.449,56.062-39.594,65.713    c-17.45,10.431-33.852,12.134-34.542,12.202C122.105,175.69,122.041,175.693,121.976,175.693z M123.451,151.26l0.142,6.039    c0.004,0.185-0.017,0.369-0.063,0.547c-0.107,0.413-0.152,0.838-0.136,1.266c0.014,0.369,0.079,0.744,0.193,1.115    c0.053,0.175,0.083,0.356,0.087,0.539l0.249,10.632c4.947-0.816,17.745-3.55,30.871-11.429    c22.252-13.358,34.88-34.42,37.533-62.601c0.002-0.019,0.004-0.039,0.006-0.058c0.001-0.032,0.003-0.06,0.004-0.071    c0.303-3.26,0.474-6.603,0.506-9.935c0.001-0.106,0.011-0.212,0.028-0.315c0.135-2.114,0.02-4.087-0.104-5.387    c-0.006-0.067-0.009-0.135-0.009-0.203l0.007-0.403c0.001-0.242-0.021-0.488-0.068-0.752c-0.002-0.012-0.004-0.024-0.007-0.036    c-0.036-0.195-0.081-0.387-0.14-0.572c-0.004-0.012-0.008-0.023-0.012-0.035c-0.533-1.604-1.938-2.689-3.495-2.702    c-0.899,0.007-1.827,0.369-2.52,1.055c-0.778,0.771-1.209,1.824-1.213,2.965l-0.004,0.322c0,0.052-0.003,0.104-0.007,0.155    c-0.06,0.688-0.603,6.821-1.183,10.415c-5.772,29.141-22.46,43.798-35.446,50.974C137.647,148.876,127.551,150.729,123.451,151.26    z"/>
	</g>
	<g>
		<circle class="st3" cx="176.628" cy="115.581" r="22"/>
	</g>
	<g>
		<path class="st1" d="M176.628,139.582c-13.234,0-24-10.766-24-24s10.766-24,24-24s24,10.766,24,24    S189.862,139.582,176.628,139.582z M176.628,95.582c-11.028,0-20,8.972-20,20s8.972,20,20,20s20-8.972,20-20    S187.656,95.582,176.628,95.582z"/>
	</g>
	<g>
		<circle class="st3" cx="56.628" cy="89.581" r="24"/>
	</g>
	<g>
		<circle class="st3" cx="32.628" cy="85.581" r="20"/>
	</g>
	<g>
		<path class="st1" d="M56.628,115.582c-7.378,0-14.325-3.093-19.256-8.531c-1.579,0.353-3.17,0.531-4.744,0.531    c-12.131,0-22-9.869-22-22s9.869-22,22-22c4.068,0,8.002,1.111,11.455,3.226c3.832-2.114,8.142-3.226,12.545-3.226    c14.336,0,26,11.664,26,26S70.965,115.582,56.628,115.582z M38.079,102.81c0.589,0,1.159,0.261,1.545,0.73    c4.201,5.11,10.399,8.042,17.004,8.042c12.131,0,22-9.869,22-22s-9.869-22-22-22c-4.09,0-8.085,1.133-11.552,3.277    c-0.678,0.418-1.54,0.396-2.193-0.059c-3.028-2.105-6.574-3.218-10.255-3.218c-9.925,0-18,8.075-18,18s8.075,18,18,18    c1.623,0,3.273-0.234,4.906-0.696C37.715,102.834,37.898,102.81,38.079,102.81z"/>
	</g>
	<g>
		<path class="st3" d="M165.425,236.71l7.505,7.452c3.248,3.225,8.514,3.225,11.762,0v0c3.248-3.225,3.248-8.454,0-11.68    l-2.884-2.864c-0.245-0.243-0.383-0.573-0.383-0.918v-24.12h-18.297v23.359v3.263C163.128,233.269,163.954,235.25,165.425,236.71z    "/>
	</g>
	<g>
		<path class="st3" d="M77.832,236.71l-7.505,7.452c-3.248,3.225-8.514,3.225-11.762,0l0,0c-3.248-3.225-3.248-8.454,0-11.68    l2.884-2.864c0.245-0.243,0.383-0.573,0.383-0.918v-24.12h18.297v23.359v3.263C80.128,233.269,79.302,235.25,77.832,236.71z"/>
	</g>
	<g>
		<path class="st1" d="M178.811,248.575c-2.64,0-5.28-0.998-7.29-2.993l-7.505-7.453c-1.862-1.849-2.888-4.308-2.888-6.925v-26.623    c0-1.104,0.896-2,2-2h18.297c1.104,0,2,0.896,2,2v23.825l2.676,2.657c1.952,1.938,3.027,4.516,3.027,7.259    s-1.075,5.321-3.027,7.259C184.092,247.578,181.452,248.575,178.811,248.575z M165.128,206.582v24.623    c0,1.543,0.606,2.994,1.706,4.087l0,0l7.505,7.453c2.467,2.448,6.479,2.448,8.944,0c1.19-1.182,1.845-2.751,1.845-4.421    c0-1.669-0.655-3.239-1.845-4.42l-2.885-2.864c-0.628-0.625-0.973-1.454-0.973-2.337v-22.119H165.128z"/>
	</g>
	<g>
		<path class="st1" d="M64.445,248.575c-2.64,0-5.28-0.998-7.29-2.993c-1.952-1.939-3.027-4.517-3.027-7.26s1.075-5.321,3.027-7.259    l2.676-2.658v-23.824c0-1.104,0.896-2,2-2h18.297c1.104,0,2,0.896,2,2v26.623c0,2.617-1.025,5.076-2.888,6.925l-7.505,7.453    C69.726,247.578,67.086,248.575,64.445,248.575z M63.832,206.582v22.119c0,0.883-0.346,1.713-0.973,2.336l-2.885,2.865    c-1.19,1.182-1.845,2.751-1.845,4.42c0,1.669,0.655,3.239,1.845,4.421c2.467,2.448,6.479,2.448,8.944,0l7.505-7.452l0,0    c1.1-1.093,1.706-2.544,1.706-4.087v-24.623H63.832z"/>
	</g>
	<g>
		<path class="st2" d="M84.815,127.804L84.815,127.804c-12.025,0-21.773,9.493-21.773,21.204v18.175    c0,1.822,0.213,3.594,0.604,5.301c-6.218,1.982-10.713,7.67-10.713,14.389c0,2.509,2.089,4.544,4.666,4.544h30.327h19.44v-19.69    v-21.961C107.366,137.637,97.27,127.804,84.815,127.804z"/>
	</g>
	<g>
		<path class="st1" d="M107.366,193.417H57.599c-3.676,0-6.666-2.936-6.666-6.544c0-6.848,4.124-12.941,10.43-15.667    c-0.213-1.336-0.32-2.683-0.32-4.023v-18.175c0-12.795,10.665-23.204,23.773-23.204h0c13.537,0,24.551,10.749,24.551,23.961    v41.651C109.366,192.521,108.471,193.417,107.366,193.417z M84.815,129.804c-10.903,0-19.773,8.615-19.773,19.204v18.175    c0,1.619,0.187,3.251,0.554,4.854c0.233,1.014-0.351,2.037-1.342,2.353c-5.575,1.778-9.321,6.794-9.321,12.483    c0,1.403,1.196,2.544,2.666,2.544h47.768v-39.651C105.366,138.759,96.147,129.804,84.815,129.804z"/>
	</g>
	<g>
		<path class="st2" d="M182.191,172.484c0.391-1.707,0.604-3.479,0.604-5.301v-18.175c0-11.711-9.748-21.204-21.773-21.204h0    c-12.455,0-22.551,9.832-22.551,21.961v21.961v19.69h19.44h30.327c2.577,0,4.666-2.034,4.666-4.544    C192.904,180.155,188.409,174.467,182.191,172.484z"/>
	</g>
	<g>
		<path class="st1" d="M188.238,193.417h-49.768c-1.104,0-2-0.896-2-2v-41.651c0-13.212,11.014-23.961,24.551-23.961    c13.109,0,23.773,10.409,23.773,23.204v18.175c0,1.34-0.107,2.687-0.32,4.023c6.306,2.725,10.429,8.818,10.429,15.667    C194.904,190.481,191.914,193.417,188.238,193.417z M140.471,189.417h47.768c1.47,0,2.666-1.141,2.666-2.544    c0-5.689-3.746-10.706-9.321-12.483c-0.991-0.316-1.575-1.338-1.342-2.353c0.367-1.602,0.554-3.235,0.554-4.854v-18.175    c0-10.589-8.87-19.204-19.773-19.204c-11.332,0-20.551,8.955-20.551,19.961V189.417z"/>
	</g>
	<g>
		<path class="st2" d="M169.049,146.498c0.868,5.183,1.304,10.418,1.304,15.659v0.233c0,16.031-14.437,29.026-32.246,29.026h-30.378    c-17.809,0-32.246-12.995-32.246-29.026v0c0-5.397,0.449-10.787,1.343-16.124l0,0l8.165-48.754h75.853l8.14,48.604    L169.049,146.498z"/>
	</g>
	<g>
		<path class="st2" d="M89.358,127.928v9.044c0,17.327,1.556,34.622,4.65,51.685v0c0.29,1.597,1.714,2.761,3.38,2.761l19.487-0.084    l0.025,0c1.179-0.01,2.13-0.943,2.13-2.092v-41.748c0-1.673,1.393-3.029,3.11-3.029c0.028,0,0.054,0.007,0.082,0.008    c0.028-0.001,0.054-0.008,0.082-0.008c0.353,0,0.685,0.082,0.985,0.219c1.148,0.446,1.962,1.533,1.962,2.81l0,41.557    c0,0.878,0.511,1.71,1.347,2.039c0.35,0.138,0.732,0.215,1.133,0.217l20.718,0.112c1.665,0,3.09-1.164,3.38-2.761l0,0    c3.094-17.063,4.65-34.358,4.65-51.685v-9.044H89.358z"/>
	</g>
	<g>
		<path class="st1" d="M138.107,193.417h-30.378c-18.883,0-34.246-13.918-34.246-31.026c0-5.49,0.461-11.026,1.37-16.454    l8.166-48.755c0.162-0.963,0.996-1.669,1.973-1.669h75.854c0.977,0,1.811,0.706,1.973,1.669l8.204,48.985c0,0,0,0,0,0    c0.883,5.274,1.331,10.653,1.331,15.99v0.234C172.353,179.499,156.991,193.417,138.107,193.417z M86.685,99.513l-7.886,47.085    c-0.873,5.21-1.315,10.524-1.315,15.793c0,14.902,13.568,27.026,30.246,27.026h30.378c16.677,0,30.246-12.124,30.246-27.026    v-0.234c0-5.116-0.429-10.273-1.276-15.329l-7.924-47.316H86.685z"/>
	</g>
	<g>
		<path class="st0" d="M125.251,177.731v11.265c0,0.878,0.511,1.71,1.347,2.039c0.35,0.138,0.732,0.215,1.133,0.217l20.378,0.111    h0.362c1.656-0.01,3.07-1.169,3.358-2.759l0,0c0.655-3.614,1.226-7.239,1.743-10.872H125.251z"/>
	</g>
	<g>
		<path class="st0" d="M116.875,191.28l0.025,0c1.179-0.01,2.13-0.944,2.13-2.092v-11.457H92.265    c0.517,3.632,1.088,7.258,1.743,10.872v0c0.288,1.59,1.702,2.749,3.358,2.759h0.449L116.875,191.28z"/>
	</g>
	<g>
		<path class="st1" d="M148.449,193.418l-20.729-0.112c-0.638-0.003-1.262-0.123-1.854-0.355c-1.564-0.616-2.614-2.183-2.614-3.9    v-41.557c0-0.413-0.269-0.784-0.685-0.945c-0.037-0.014-0.073-0.029-0.108-0.045c-0.039-0.018-0.076-0.03-0.11-0.035    c-0.05,0.003-0.086,0.004-0.126,0.004c-0.053,0-0.104-0.002-0.154-0.006c-0.579,0.035-1.039,0.482-1.039,1.027v41.748    c0,2.238-1.846,4.074-4.115,4.092l-19.519,0.084c-2.645,0-4.894-1.853-5.356-4.404c-3.107-17.134-4.683-34.644-4.683-52.042    v-9.044c0-1.104,0.896-2,2-2s2,0.896,2,2v9.044c0,17.16,1.554,34.429,4.618,51.329c0.117,0.648,0.711,1.118,1.412,1.118    l19.478-0.084c0.114-0.001,0.164-0.061,0.164-0.092v-41.748c0-2.773,2.292-5.029,5.11-5.029c0.05,0,0.115,0,0.164,0    c0.604,0,1.197,0.126,1.762,0.375c1.937,0.775,3.186,2.596,3.186,4.654v41.557c0,0.091,0.046,0.165,0.079,0.178    c0.129,0.051,0.267,0.077,0.41,0.078l20.719,0.112c0.689,0,1.283-0.47,1.401-1.118c3.064-16.9,4.618-34.169,4.618-51.329v-9.044    c0-1.104,0.896-2,2-2s2,0.896,2,2v9.044c0,17.397-1.575,34.907-4.682,52.042C153.333,191.566,151.084,193.418,148.449,193.418z"/>
	</g>
	<g>
		<path class="st7" d="M181.995,224.581H61.262c-6.018,0-11.639-3.008-14.977-8.015l0,0c-9.557-14.335-14.656-31.178-14.656-48.407    v-43.578h180v43.578c0,17.229-5.1,34.072-14.656,48.407l0,0C193.634,221.574,188.013,224.581,181.995,224.581z"/>
	</g>
	<g>
		<path class="st1" d="M181.995,226.582H61.262c-6.703,0-12.923-3.33-16.641-8.906c-9.808-14.712-14.992-31.834-14.992-49.516    v-43.578c0-1.104,0.896-2,2-2h180c1.104,0,2,0.896,2,2v43.578c0,17.682-5.184,34.804-14.992,49.516    C194.918,223.252,188.698,226.582,181.995,226.582z M33.628,126.582v41.578c0,16.89,4.952,33.245,14.32,47.297    c2.974,4.461,7.951,7.125,13.313,7.125h120.733c5.362,0,10.339-2.664,13.313-7.125c9.369-14.053,14.32-30.408,14.32-47.297    v-41.578H33.628z"/>
	</g>
	<g>
		<path class="st2" d="M170.032,12.596c1.454,4.864,3.083,16.523-6.45,33.273l-29.79-24.343    C149.075,9.475,161.149,9.012,166.32,9.562C168.079,9.749,169.537,10.941,170.032,12.596z"/>
	</g>
	<g>
		<path class="st2" d="M75.805,12.596c-1.454,4.864-3.083,16.523,6.45,33.273l29.79-24.343C96.762,9.475,84.688,9.012,79.517,9.562    C77.758,9.749,76.3,10.941,75.805,12.596z"/>
	</g>
	<g>
		<path class="st1" d="M163.582,47.869c-0.458,0-0.905-0.157-1.266-0.451l-29.79-24.343c-0.469-0.384-0.74-0.96-0.734-1.566    c0.005-0.606,0.286-1.177,0.762-1.553c15.552-12.264,27.961-13.022,33.978-12.382c2.563,0.272,4.69,2.019,5.417,4.449v0    c1.697,5.678,3.093,17.755-6.628,34.835c-0.292,0.512-0.793,0.869-1.372,0.977C163.827,47.858,163.704,47.869,163.582,47.869z     M137.02,21.581l25.964,21.217c8.023-15.249,6.298-25.726,5.132-29.629c-0.264-0.881-1.052-1.516-2.008-1.618    C161.949,11.108,151.043,11.27,137.02,21.581z"/>
	</g>
	<g>
		<path class="st1" d="M82.255,47.869c-0.122,0-0.245-0.011-0.366-0.034c-0.579-0.108-1.081-0.465-1.372-0.977    c-9.721-17.081-8.325-29.157-6.628-34.835v0c0.727-2.43,2.854-4.177,5.417-4.449c6.014-0.64,18.425,0.119,33.978,12.382    c0.476,0.375,0.756,0.947,0.762,1.553c0.005,0.606-0.265,1.183-0.734,1.566l-29.79,24.343    C83.161,47.712,82.712,47.869,82.255,47.869z M77.721,13.168c-1.167,3.904-2.892,14.381,5.132,29.629l25.964-21.217    C94.794,11.27,83.888,11.109,79.729,11.551C78.773,11.652,77.985,12.287,77.721,13.168L77.721,13.168z"/>
	</g>
	<g>
		<path class="st0" d="M80.149,70.026V56.253c0-19.496,15.804-35.3,35.3-35.3h14.938c19.496,0,35.3,15.804,35.3,35.3v13.773    c0,6.357-5.154,11.511-11.511,11.511H91.66C85.303,81.537,80.149,76.383,80.149,70.026z"/>
	</g>
	<g>
		<path class="st2" d="M104.256,70.25c6.871,0,12.442-5.425,12.442-12.117V21.026h-2.989c-18.725,1.113-33.56,16.247-33.56,34.763    v14.389c0,0.025,0.004,0.048,0.004,0.073H104.256z"/>
	</g>
	<g>
		<path class="st2" d="M132.128,21.026h-2.989v37.107c0,6.692,5.57,12.117,12.442,12.117h24.102c0-0.025,0.004-0.048,0.004-0.073    V55.789C165.687,37.274,150.853,22.139,132.128,21.026z"/>
	</g>
	<g>
		<path class="st0" d="M161.648,36.964c3.783-8.731,4.039-15.329,3.537-19.433c-0.18-1.468-1.499-2.546-3.014-2.463    c-4.237,0.231-10.865,1.622-19.037,6.766L161.648,36.964z"/>
	</g>
	<g>
		<path class="st0" d="M84.189,36.964c-3.783-8.731-4.039-15.329-3.537-19.433c0.18-1.468,1.499-2.546,3.014-2.463    c4.237,0.231,10.865,1.622,19.037,6.766L84.189,36.964z"/>
	</g>
	<g>
		<g>
			<path class="st1" d="M102.014,64.485H100.9c-2.063,0-3.735-1.672-3.735-3.735v-5.897c0-2.063,1.672-3.735,3.735-3.735h1.114     c2.063,0,3.735,1.672,3.735,3.735v5.897C105.75,62.813,104.077,64.485,102.014,64.485z"/>
		</g>
		<g>
			<path class="st1" d="M144.936,64.485h-1.114c-2.063,0-3.735-1.672-3.735-3.735v-5.897c0-2.063,1.672-3.735,3.735-3.735h1.114     c2.063,0,3.735,1.672,3.735,3.735v5.897C148.672,62.813,146.999,64.485,144.936,64.485z"/>
		</g>
	</g>
	<g>
		<path class="st1" d="M154.177,83.537H91.66c-7.45,0-13.511-6.061-13.511-13.511V56.253c0-20.567,16.732-37.3,37.3-37.3h14.938    c20.567,0,37.3,16.732,37.3,37.3v13.772C167.688,77.476,161.626,83.537,154.177,83.537z M115.449,22.954    c-18.362,0-33.3,14.938-33.3,33.3v13.772c0,5.244,4.267,9.511,9.511,9.511h62.517c5.244,0,9.511-4.267,9.511-9.511V56.253    c0-18.362-14.938-33.3-33.3-33.3H115.449z"/>
	</g>
	<g>
		<path class="st0" d="M71.596,89.483L71.596,89.483c0-13.384,10.85-24.233,24.233-24.233h54.179    c13.384,0,24.233,10.85,24.233,24.233v0c0,13.384-10.85,24.233-24.233,24.233H95.829C82.445,113.716,71.596,102.867,71.596,89.483    z"/>
	</g>
	<g>
		<path class="st3" d="M133.969,113.716h-22.101c-6.781,0-12.278-5.497-12.278-12.278V89.644c0-6.781,5.497-12.278,12.278-12.278    h22.101c6.781,0,12.278,5.497,12.278,12.278v11.794C146.247,108.219,140.75,113.716,133.969,113.716z"/>
	</g>
	<g>
		<path class="st1" d="M131.583,94.59c-3.343,0-6.435-1.069-8.665-2.934c-2.23,1.865-5.322,2.934-8.665,2.934    c-6.616,0-11.998-4.294-11.998-9.573c0-1.104,0.896-2,2-2s2,0.896,2,2c0,3.021,3.663,5.573,7.998,5.573    c2.95,0,5.66-1.155,7.072-3.015c0.757-0.996,2.429-0.996,3.186,0c1.413,1.86,4.123,3.015,7.072,3.015    c4.335,0,7.998-2.552,7.998-5.573c0-1.104,0.896-2,2-2s2,0.896,2,2C143.581,90.296,138.199,94.59,131.583,94.59z"/>
	</g>
	<g>
		<path class="st4" d="M126.933,82.367h-8.03c-2.936,0-5.317-2.38-5.317-5.317v-1.741c0-1.958,1.587-3.544,3.544-3.544h11.574    c1.958,0,3.544,1.587,3.544,3.544v1.741C132.25,79.987,129.87,82.367,126.933,82.367z"/>
	</g>
	<g>
		<path class="st1" d="M150.008,115.716H95.829c-14.465,0-26.233-11.768-26.233-26.233S81.364,63.25,95.829,63.25h54.179    c14.465,0,26.233,11.768,26.233,26.233S164.473,115.716,150.008,115.716z M95.829,67.25c-12.26,0-22.233,9.974-22.233,22.233    s9.974,22.233,22.233,22.233h54.179c12.26,0,22.233-9.974,22.233-22.233s-9.974-22.233-22.233-22.233H95.829z"/>
	</g>
	<g>
		<path class="st5" d="M218.686,140.081H24.571c-3.282,0-5.943-2.661-5.943-5.943v-15.115c0-3.282,2.661-5.943,5.943-5.943h194.115    c3.282,0,5.943,2.661,5.943,5.943v15.115C224.628,137.421,221.968,140.081,218.686,140.081z"/>
	</g>
	<g>
		<path class="st1" d="M218.686,142.082H24.571c-4.379,0-7.942-3.563-7.942-7.943v-15.115c0-4.379,3.563-7.942,7.942-7.942h194.115    c4.38,0,7.943,3.563,7.943,7.942v15.115C226.628,138.519,223.065,142.082,218.686,142.082z M24.571,115.082    c-2.174,0-3.942,1.769-3.942,3.942v15.115c0,2.174,1.769,3.943,3.942,3.943h194.115c2.174,0,3.943-1.769,3.943-3.943v-15.115    c0-2.174-1.769-3.942-3.943-3.942H24.571z"/>
	</g>
	<g>
		<path class="st0" d="M55.695,115.82c0.251,4.254,1.209,8.489,2.866,12.659l1.118,2.812c0.761,1.916,3.992,3.29,7.736,3.29h0h6.429    h0c3.744,0,6.974-1.374,7.736-3.29l1.118-2.812c1.657-4.17,2.615-8.405,2.866-12.659l0.066-5.112c0-2.279-3.535-4.127-7.896-4.127    h-3.889h-6.429h-3.889c-4.361,0-7.896,1.848-7.896,4.127L55.695,115.82z"/>
	</g>
	<g>
		<path class="st0" d="M157.695,115.82c0.251,4.254,1.209,8.489,2.866,12.659l1.118,2.812c0.761,1.916,3.992,3.29,7.736,3.29l0,0    h6.429l0,0c3.744,0,6.974-1.374,7.736-3.29l1.118-2.812c1.657-4.17,2.615-8.405,2.866-12.659l0.066-5.112    c0-2.279-3.535-4.127-7.896-4.127h-3.889h-6.429h-3.889c-4.361,0-7.896,1.848-7.896,4.127L157.695,115.82z"/>
	</g>
	<g>
		<path class="st1" d="M73.843,136.582h-6.429c-4.657,0-8.513-1.829-9.595-4.552l-1.117-2.812c-1.731-4.355-2.741-8.824-3.004-13.28    c-0.002-0.031-0.003-0.061-0.003-0.092l-0.066-5.112c0-3.519,4.254-6.153,9.896-6.153h14.207c5.642,0,9.896,2.634,9.896,6.127    l-0.066,5.138c-0.266,4.548-1.276,9.016-3.007,13.372l-1.118,2.813C82.355,134.752,78.499,136.582,73.843,136.582z     M57.694,115.748c0.242,4.015,1.159,8.049,2.725,11.992l1.118,2.813c0.33,0.83,2.612,2.029,5.877,2.029h6.429    c3.265,0,5.548-1.2,5.877-2.029l1.118-2.813c1.572-3.958,2.49-8.008,2.728-12.038l0.063-5.02c0-0.521-2.027-2.101-5.896-2.101    H63.525c-3.869,0-5.896,1.581-5.896,2.127L57.694,115.748z"/>
	</g>
	<g>
		<path class="st1" d="M175.843,136.582h-6.429c-4.657,0-8.513-1.829-9.595-4.552l-1.117-2.812    c-1.731-4.355-2.741-8.824-3.004-13.28c-0.002-0.031-0.003-0.061-0.003-0.092l-0.066-5.112c0-3.519,4.254-6.153,9.896-6.153    h14.207c5.642,0,9.896,2.634,9.896,6.127l-0.066,5.138c-0.266,4.548-1.276,9.016-3.007,13.372l-1.118,2.813    C184.355,134.752,180.499,136.582,175.843,136.582z M159.694,115.748c0.242,4.015,1.159,8.049,2.725,11.992l1.118,2.813    c0.33,0.83,2.612,2.029,5.877,2.029h6.429c3.265,0,5.548-1.2,5.877-2.029l1.118-2.813c1.572-3.958,2.49-8.008,2.728-12.038    l0.063-5.02c0-0.521-2.027-2.101-5.896-2.101h-14.207c-3.869,0-5.896,1.581-5.896,2.127L159.694,115.748z"/>
	</g>
	<g>
		<circle class="st3" cx="32.628" cy="109.581" r="22"/>
	</g>
	<g>
		<circle class="st3" cx="204.128" cy="117.081" r="15.5"/>
	</g>
	<g>
		<path class="st1" d="M32.628,133.582c-13.234,0-24-10.766-24-24s10.766-24,24-24s24,10.766,24,24S45.862,133.582,32.628,133.582z     M32.628,89.582c-11.028,0-20,8.972-20,20s8.972,20,20,20s20-8.972,20-20S43.656,89.582,32.628,89.582z"/>
	</g>
	<g>
		<path class="st1" d="M204.128,134.582c-9.649,0-17.5-7.851-17.5-17.5s7.851-17.5,17.5-17.5s17.5,7.851,17.5,17.5    S213.778,134.582,204.128,134.582z M204.128,103.582c-7.444,0-13.5,6.056-13.5,13.5s6.056,13.5,13.5,13.5s13.5-6.056,13.5-13.5    S211.572,103.582,204.128,103.582z"/>
	</g>
	<g>
		<path class="st8" d="M228.372,182.831h-28.9h-28.9l-10.853,50.928c-0.131,0.613-0.197,1.238-0.197,1.865v2.008    c0,2.457,1.011,4.807,2.794,6.497l0,0c1.662,1.575,3.865,2.453,6.155,2.453h31.001h31.001c2.29,0,4.493-0.878,6.155-2.453h0    c1.784-1.69,2.794-4.039,2.794-6.497v-2.008c0-0.627-0.066-1.252-0.197-1.865L228.372,182.831z"/>
	</g>
	<g>
		<path class="st0" d="M175.979,226.71l5.314-24.933c0.167-0.785,0.86-1.346,1.663-1.346h33.034c0.802,0,1.495,0.561,1.663,1.346    l5.314,24.933c1.127,5.289-2.906,10.272-8.313,10.272h-30.36C178.884,236.981,174.851,231.998,175.979,226.71z"/>
	</g>
	<g>
		<path class="st6" d="M193.76,211.784L193.76,211.784c-0.697,0.947-1.111,2.084-1.13,3.308c-0.05,3.228,2.756,5.987,6.273,6.156    c3.824,0.184,6.987-2.604,6.987-6.068c0-1.258-0.417-2.426-1.131-3.395h0l-0.002-0.002c0,0,0,0,0,0l-4.945-6.829    c-0.262-0.362-0.842-0.362-1.105,0l-4.945,6.828c0,0-0.001,0.001-0.001,0.001L193.76,211.784z"/>
	</g>
	<g>
		<path class="st1" d="M199.472,227.931c-1.104,0-2-0.896-2-2v-8.5c0-1.104,0.896-2,2-2s2,0.896,2,2v8.5    C201.472,227.036,200.576,227.931,199.472,227.931z"/>
	</g>
	<g>
		<path class="st3" d="M207.972,225.931h-17c-1.878,0-3.4,1.522-3.4,3.4v7.65h23.8v-7.65    C211.372,227.454,209.849,225.931,207.972,225.931z"/>
	</g>
	<g>
		<path class="st1" d="M230.472,248.582h-62.001c-2.813,0-5.488-1.065-7.531-3c-2.173-2.06-3.419-4.957-3.419-7.949v-2.007    c0-0.766,0.081-1.535,0.241-2.283l10.854-50.927c0.197-0.923,1.012-1.583,1.956-1.583h57.8c0.944,0,1.759,0.66,1.956,1.583    l10.854,50.928c0.16,0.748,0.241,1.516,0.241,2.282v2.007c0,2.993-1.246,5.89-3.419,7.949    C235.96,247.516,233.286,248.582,230.472,248.582z M172.19,184.832l-10.516,49.345c-0.102,0.475-0.153,0.962-0.153,1.448v2.007    c0,1.899,0.791,3.738,2.17,5.045c1.296,1.228,2.994,1.904,4.779,1.904h62.001c1.786,0,3.483-0.676,4.779-1.904    c1.379-1.307,2.17-3.146,2.17-5.045v-2.007c0-0.486-0.051-0.973-0.153-1.448l-10.516-49.345H172.19z"/>
	</g>
	<g>
		<path class="st8" d="M241.972,177.731h-85c-1.878,0-3.4-1.522-3.4-3.4v-7.65c0-1.878,1.522-3.4,3.4-3.4h85    c1.878,0,3.4,1.522,3.4,3.4v7.65C245.372,176.209,243.849,177.731,241.972,177.731z"/>
	</g>
	<g>
		<path class="st8" d="M232.581,192.181h-66.22c-1.9,0-3.44-1.54-3.44-3.44v-11.01h73.1v11.01    C236.022,190.641,234.481,192.181,232.581,192.181z"/>
	</g>
	<g>
		<path class="st1" d="M241.972,179.731h-85c-2.978,0-5.4-2.422-5.4-5.4v-7.65c0-2.978,2.422-5.4,5.4-5.4h85    c2.978,0,5.4,2.422,5.4,5.4v7.65C247.372,177.309,244.949,179.731,241.972,179.731z M156.972,165.281c-0.772,0-1.4,0.628-1.4,1.4    v7.65c0,0.772,0.628,1.4,1.4,1.4h85c0.772,0,1.4-0.628,1.4-1.4v-7.65c0-0.772-0.628-1.4-1.4-1.4H156.972z"/>
	</g>
	<g>
		<path class="st1" d="M232.582,194.181h-66.22c-3,0-5.44-2.44-5.44-5.44v-11.01c0-1.104,0.896-2,2-2h73.1c1.104,0,2,0.896,2,2    v11.01C238.021,191.741,235.581,194.181,232.582,194.181z M164.922,179.731v9.01c0,0.794,0.646,1.44,1.44,1.44h66.22    c0.794,0,1.44-0.646,1.44-1.44v-9.01H164.922z"/>
	</g>
	<g>
		<path class="st1" d="M214.651,238.981h-30.359c-3.184,0-6.159-1.419-8.162-3.894c-2.003-2.475-2.771-5.681-2.108-8.795l0,0    l5.313-24.933c0.362-1.697,1.884-2.929,3.619-2.929h33.034c1.735,0,3.257,1.231,3.619,2.928l5.313,24.933    c0.664,3.114-0.104,6.32-2.108,8.795C220.81,237.562,217.835,238.981,214.651,238.981z M177.935,227.126    c-0.411,1.928,0.065,3.912,1.305,5.444c1.24,1.532,3.081,2.411,5.052,2.411h30.359c1.971,0,3.813-0.878,5.052-2.411    c1.24-1.532,1.716-3.517,1.305-5.444l-5.263-24.695h-32.549L177.935,227.126z"/>
	</g>
</g>
</svg>
