<?xml version="1.0" encoding="utf-8"?>
<!-- Generator: Adobe Illustrator 22.1.0, SVG Export Plug-In . SVG Version: 6.00 Build 0)  -->
<svg xmlns="http://www.w3.org/2000/svg" xmlns:xlink="http://www.w3.org/1999/xlink" version="1.1" id="Layer_1" x="0px" y="0px" viewBox="0 0 256 256" style="enable-background:new 0 0 256 256;" xml:space="preserve" width="512" height="512">
<style type="text/css">
	.st0{fill:#F9CFCF;}
	.st1{fill:#3762CC;}
	.st2{fill:#F9A7A7;}
	.st3{fill:#E0EBFC;}
	.st4{fill:#4671C6;}
	.st5{fill:#6BDDDD;}
	.st6{fill:#FFEA92;}
	.st7{fill:#A4C9FF;}
	.st8{fill:#EAA97D;}
	.st9{fill:#B9BEFC;}
</style>
<g>
	<g>
		<path class="st7" d="M78.972,164.315l35.184,24.636L199.15,67.567c12.926-18.46,8.439-43.903-10.02-56.829l0,0    c-0.972-0.68-2.311-0.444-2.991,0.527L78.972,164.315z"/>
	</g>
	<g>
		<path class="st2" d="M133.97,160.652l-35.184-24.636l-18.193,25.982c-14.98-1.912-30.49,4.335-39.753,17.564    c-13.303,18.999-8.686,45.186,10.313,58.49c18.999,13.303,45.186,8.686,58.49-10.313c8.324-11.887,9.631-26.588,4.791-39.186    L133.97,160.652z M96.183,218.313c-8.085,11.547-24.056,14.363-35.603,6.278c-11.546-8.085-14.363-24.056-6.278-35.602    c8.085-11.547,24.056-14.363,35.602-6.278C101.451,190.796,104.267,206.766,96.183,218.313z"/>
	</g>
	<g>
		<path class="st1" d="M75.148,247.659c-8.944,0-17.661-2.73-25.142-7.968c-19.872-13.915-24.719-41.403-10.805-61.275    c9.17-13.096,24.563-20.128,40.436-18.539L184.5,10.118c0.635-0.907,1.586-1.513,2.678-1.706c1.089-0.193,2.191,0.052,3.099,0.688    l-1.147,1.638l1.148-1.638c19.333,13.538,24.048,40.281,10.511,59.614l-84.114,120.127c4.795,13.441,2.809,28.333-5.392,40.044    c-6.74,9.627-16.826,16.052-28.4,18.093C80.302,247.434,77.716,247.659,75.148,247.659z M75.215,163.656    c-12.962,0-25.178,6.261-32.735,17.054c-12.65,18.065-8.244,43.054,9.822,55.705c8.75,6.127,19.363,8.48,29.886,6.625    c10.521-1.855,19.69-7.697,25.817-16.448c7.643-10.913,9.348-24.865,4.563-37.322c-0.238-0.621-0.152-1.32,0.229-1.864    L197.511,66.42c12.272-17.527,7.998-41.771-9.528-54.044c-0.055-0.038-0.165-0.021-0.205,0.036L82.232,163.145    c-0.427,0.608-1.151,0.93-1.892,0.837C78.625,163.763,76.914,163.656,75.215,163.656z"/>
	</g>
	<g>
		<path class="st1" d="M75.169,231.211c-5.604,0-11.059-1.707-15.736-4.982c-12.449-8.717-15.485-25.938-6.769-38.388    s25.938-15.488,38.389-6.769c12.449,8.718,15.485,25.938,6.769,38.388c-4.217,6.022-10.536,10.044-17.794,11.324    C78.405,231.069,76.78,231.211,75.169,231.211z M75.276,180.095c-7.435,0-14.757,3.501-19.335,10.04    c-7.453,10.643-4.857,25.365,5.786,32.817c5.146,3.604,11.4,4.986,17.604,3.892c6.206-1.094,11.608-4.531,15.212-9.678l0,0    c7.453-10.643,4.857-25.365-5.786-32.817C84.654,181.475,79.942,180.095,75.276,180.095z"/>
	</g>
	<g>
		<path class="st3" d="M177.028,164.315l-35.184,24.636L56.85,67.567c-12.926-18.46-8.439-43.903,10.02-56.829l0,0    c0.972-0.68,2.311-0.444,2.991,0.527L177.028,164.315z"/>
	</g>
	<g>
		<path class="st2" d="M215.159,179.563c-9.263-13.23-24.772-19.476-39.753-17.564l-18.558-26.503l-35.184,24.636l19.901,28.422    c-4.84,12.599-3.533,27.299,4.791,39.186c13.303,18.999,39.49,23.617,58.49,10.313    C223.845,224.749,228.462,198.562,215.159,179.563z M195.42,224.591c-11.547,8.085-27.517,5.269-35.603-6.278    c-8.085-11.547-5.269-27.517,6.278-35.602c11.546-8.085,27.517-5.269,35.602,6.278    C209.782,200.535,206.966,216.506,195.42,224.591z"/>
	</g>
	<g>
		<circle class="st5" cx="128.901" cy="129.182" r="8.59"/>
	</g>
	<g>
		<path class="st1" d="M180.852,247.659c-2.567,0-5.152-0.225-7.733-0.68c-11.574-2.041-21.66-8.466-28.4-18.093    c-8.201-11.711-10.187-26.604-5.392-40.044L55.212,68.714C41.675,49.38,46.39,22.637,65.724,9.1    c0.907-0.635,2.009-0.88,3.099-0.687c1.092,0.192,2.043,0.798,2.678,1.706l104.862,149.758    c15.871-1.586,31.266,5.444,40.436,18.539l0,0c13.914,19.873,9.066,47.36-10.805,61.275    C198.514,244.928,189.796,247.659,180.852,247.659z M68.095,12.355c-0.028,0-0.056,0.006-0.076,0.021    c-8.491,5.946-14.158,14.841-15.958,25.049s0.483,20.505,6.429,28.996l84.715,120.986c0.381,0.544,0.467,1.243,0.229,1.864    c-4.785,12.457-3.08,26.408,4.563,37.321c6.127,8.751,15.296,14.593,25.817,16.448c10.522,1.855,21.135-0.499,29.886-6.625    c18.065-12.65,22.472-37.639,9.822-55.705c-8.548-12.207-23.057-18.614-37.861-16.728c-0.741,0.093-1.465-0.229-1.892-0.837    L68.223,12.412C68.197,12.375,68.145,12.355,68.095,12.355z"/>
	</g>
	<g>
		<path class="st1" d="M180.831,231.211c-1.612,0-3.236-0.142-4.858-0.427c-7.258-1.28-13.577-5.301-17.794-11.324    c-8.717-12.449-5.681-29.67,6.769-38.388c12.45-8.719,29.67-5.68,38.389,6.769c8.717,12.45,5.681,29.67-6.769,38.388l0,0    C191.891,229.503,186.435,231.211,180.831,231.211z M180.724,180.095c-4.667,0-9.377,1.379-13.481,4.253    c-10.644,7.453-13.239,22.174-5.786,32.817c3.604,5.147,9.006,8.584,15.212,9.678c6.204,1.095,12.457-0.287,17.604-3.892l0,0    c10.644-7.453,13.239-22.174,5.786-32.817C195.48,183.597,188.157,180.095,180.724,180.095z M195.42,224.591h0.01H195.42z"/>
	</g>
</g>
</svg>
