<?xml version="1.0" encoding="utf-8"?>
<!-- Generator: Adobe Illustrator 22.1.0, SVG Export Plug-In . SVG Version: 6.00 Build 0)  -->
<svg xmlns="http://www.w3.org/2000/svg" xmlns:xlink="http://www.w3.org/1999/xlink" version="1.1" id="Layer_1" x="0px" y="0px" viewBox="0 0 256 256" style="enable-background:new 0 0 256 256;" xml:space="preserve" width="512" height="512">
<style type="text/css">
	.st0{fill:#F9CFCF;}
	.st1{fill:#3762CC;}
	.st2{fill:#F9A7A7;}
	.st3{fill:#E0EBFC;}
	.st4{fill:#4671C6;}
	.st5{fill:#6BDDDD;}
	.st6{fill:#FFEA92;}
	.st7{fill:#A4C9FF;}
	.st8{fill:#EAA97D;}
	.st9{fill:#B9BEFC;}
</style>
<g>
	<g>
		<path class="st7" d="M68.021,184.54v-6c0-16.569,13.431-30,30-30h14c12.15,0,22,9.85,22,22v44h-36    C81.452,214.54,68.021,201.109,68.021,184.54z"/>
	</g>
	<g>
		<path class="st7" d="M247.021,44.54l-64.532,64.532c-9.797-1.801-20.143-1.475-30.39,1.352L87.945,128.12l0.116,0.421    c-0.014,0-0.027-0.001-0.04-0.001h-13h-1c-16.569,0-30,13.432-30,30v6c0,16.568,13.431,30,30,30h18.273    c-0.175,1.309-0.273,2.643-0.273,4v6c0,16.568,13.431,30,30,30h14h22h38c23.435,0,42.678-17.917,44.798-40.798l7.202-7.202v-141    L247.021,44.54z"/>
	</g>
	<g>
		<g>
			<path class="st8" d="M65.964,220.589c-1.011,4.906-0.834,10.733,1.176,17.651l0.016-0.014c0.664,2.161,1.515,4.016,2.316,5.483     c0.769,1.41,3.074,1.13,3.6-0.428c1.7-5.037,4.243-8.664,7.138-11.286L65.964,220.589z"/>
		</g>
		<g>
			<path class="st8" d="M41.568,201.055c-0.508,4.364-0.112,9.391,1.571,15.184l0.016-0.014c0.664,2.161,1.515,4.016,2.316,5.483     c0.769,1.41,3.074,1.13,3.6-0.428c1.388-4.114,3.338-7.292,5.582-9.748L41.568,201.055z"/>
		</g>
		<g>
			<path class="st8" d="M13.615,178.673c-0.577,4.451-0.208,9.603,1.525,15.566l0.016-0.014c0.664,2.161,1.515,4.016,2.316,5.483     c0.769,1.41,3.074,1.13,3.6-0.428c1.434-4.251,3.471-7.496,5.81-9.984L13.615,178.673z"/>
		</g>
	</g>
	<path class="st1" d="M249.436,44.126l-1-1c-0.781-0.781-2.047-0.781-2.828,0l-63.796,63.796   c-10.11-1.704-20.278-1.174-30.244,1.574l-63.923,17.632l-13.623,0.412c-17.645,0-32,14.355-32,32v6   c0,15.367,11.165,28.685,26.154,31.461c3.933,10.133,12.909,17.938,23.975,19.997c4.619,12.001,16.263,20.542,29.871,20.542h74   c24.181,0,44.138-17.955,46.717-41.888l6.697-6.698c0.375-0.375,0.586-0.884,0.586-1.414v-141   C250.021,45.01,249.811,44.501,249.436,44.126z M246.021,185.711l-6.616,6.617c-0.33,0.33-0.534,0.765-0.577,1.229   c-2.06,22.224-20.462,38.982-42.807,38.982h-74c-15.439,0-28-12.561-28-28v-6c0-15.439,12.561-28,28-28h14c1.104,0,2-0.896,2-2   s-0.896-2-2-2h-14c-17.645,0-32,14.355-32,32v6c0,2.424,0.28,4.783,0.793,7.055c-12.049-3.218-20.793-14.332-20.793-27.055v-6   c0-15.439,12.561-28,28-28h14c1.104,0,2-0.896,2-2s-0.896-2-2-2h-14c-17.645,0-32,14.355-32,32v6c0,2.414,0.278,4.777,0.801,7.057   c-12.052-3.216-20.801-14.332-20.801-27.057v-6c0-15.439,12.561-28,28.061-28.001l13.924-0.42c0.159-0.005,0.317-0.029,0.472-0.071   l64.154-17.696c9.722-2.682,19.646-3.124,29.496-1.313c0.646,0.118,1.312-0.088,1.775-0.553l62.118-62.118V185.711z"/>
	<g>
		<path class="st8" d="M92.021,204.54v-6c0-2.414,0.293-4.757,0.831-7.006c-7.677,2.738-20.035,9.215-22.888,23.055l14.245,11.405    c3.802-3.443,8.214-5.124,12.15-5.908C93.606,215.552,92.021,210.232,92.021,204.54z"/>
	</g>
	<g>
		<path class="st8" d="M68.021,184.54v-6c0-3.206,0.508-6.291,1.439-9.187c-0.202,0.049-0.404,0.108-0.604,0.18    c-8.119,2.895-21.478,9.972-23.288,25.522l13.085,10.477c3.812-4.172,8.477-6.246,12.71-7.238    C69.232,194.173,68.021,189.5,68.021,184.54z"/>
	</g>
	<g>
		<path class="st8" d="M44.021,164.54v-6c0-4.029,0.8-7.87,2.24-11.38c-0.922-0.535-2.052-0.708-3.156-0.371    c-7.541,2.298-23.31,9.067-25.491,25.884l13.267,10.623c4.656-4.953,10.522-6.861,15.323-7.521    C44.801,172.304,44.021,168.514,44.021,164.54z"/>
	</g>
	<g>
		<path class="st1" d="M84.209,227.994c-0.441,0-0.884-0.146-1.25-0.439L68.714,216.15c-0.587-0.47-0.86-1.229-0.709-1.965    c3.081-14.942,16.469-21.786,24.175-24.535c0.69-0.245,1.462-0.095,2.008,0.396s0.78,1.24,0.609,1.954    c-0.515,2.149-0.775,4.35-0.775,6.541v6c0,5.13,1.399,10.147,4.047,14.508c0.338,0.558,0.384,1.246,0.121,1.843    s-0.801,1.029-1.44,1.156c-4.427,0.882-8.193,2.708-11.197,5.429C85.172,227.821,84.69,227.994,84.209,227.994z M72.195,213.813    l11.98,9.592c2.649-2.089,5.722-3.645,9.173-4.644c-2.184-4.399-3.327-9.265-3.327-14.222v-6c0-1.272,0.077-2.548,0.229-3.816    C83.584,197.677,74.871,203.419,72.195,213.813z"/>
	</g>
	<g>
		<path class="st1" d="M58.651,207.532c-0.439,0-0.881-0.144-1.249-0.439l-13.084-10.477c-0.538-0.431-0.816-1.108-0.736-1.792    c1.943-16.705,16.248-24.196,24.602-27.175c0.27-0.096,0.535-0.174,0.803-0.239c0.701-0.173,1.444,0.049,1.938,0.58    c0.493,0.53,0.662,1.285,0.44,1.975c-0.891,2.772-1.343,5.657-1.343,8.575v6c0,4.517,1.049,8.835,3.117,12.836    c0.283,0.547,0.298,1.195,0.04,1.755s-0.76,0.97-1.36,1.11c-4.747,1.112-8.68,3.346-11.689,6.64    C59.735,207.312,59.195,207.532,58.651,207.532z M47.703,194.203l10.791,8.641c2.805-2.646,6.171-4.604,10.05-5.844    c-1.675-3.939-2.522-8.12-2.522-12.459v-6c0-2.007,0.188-4.001,0.559-5.961C59.305,175.73,49.615,182.126,47.703,194.203z"/>
	</g>
	<g>
		<path class="st1" d="M30.88,185.296c-0.439,0-0.882-0.145-1.249-0.439l-13.267-10.623c-0.545-0.437-0.823-1.125-0.733-1.818    c2.357-18.179,19.592-25.315,26.892-27.54c1.577-0.479,3.307-0.28,4.742,0.555c0.864,0.501,1.226,1.564,0.847,2.489    c-1.387,3.379-2.09,6.952-2.09,10.621v6c0,3.615,0.686,7.142,2.037,10.485c0.23,0.572,0.186,1.218-0.124,1.752    c-0.309,0.534-0.847,0.895-1.458,0.979c-5.824,0.801-10.581,3.125-14.139,6.91C31.946,185.083,31.415,185.296,30.88,185.296z     M19.763,171.832l10.981,8.792c3.45-3.157,7.804-5.34,12.773-6.407c-0.994-3.124-1.496-6.369-1.496-9.677v-6    c0-3.354,0.515-6.639,1.532-9.796C35.589,151.194,22.242,157.404,19.763,171.832z"/>
	</g>
	<g>
		<g>
			<path class="st1" d="M71.091,246.623c-1.433,0-2.704-0.728-3.375-1.957c-0.976-1.788-1.777-3.662-2.386-5.576     c-0.044-0.094-0.081-0.191-0.111-0.293c-1.96-6.75-2.369-13.012-1.214-18.613c0.141-0.682,0.626-1.241,1.28-1.478     c0.651-0.235,1.384-0.116,1.929,0.32l14.244,11.406c0.457,0.366,0.731,0.915,0.749,1.5c0.018,0.585-0.222,1.149-0.656,1.543     c-2.926,2.649-5.141,6.163-6.584,10.442c-0.505,1.492-1.879,2.546-3.502,2.688C71.339,246.618,71.215,246.623,71.091,246.623z      M68.983,237.416c0.032,0.072,0.061,0.146,0.084,0.222c0.523,1.706,1.226,3.38,2.087,4.978c0.021-0.005,0.041-0.013,0.052-0.022     c1.361-4.069,3.382-7.579,6.005-10.437l-9.758-7.813C67.141,228.357,67.652,232.738,68.983,237.416z"/>
		</g>
		<g>
			<path class="st1" d="M47.091,224.623c-1.433,0-2.704-0.728-3.375-1.957c-0.976-1.788-1.777-3.662-2.386-5.576     c-0.044-0.094-0.081-0.191-0.111-0.293c-1.656-5.701-2.207-11.075-1.637-15.974c0.084-0.723,0.554-1.342,1.227-1.619     c0.672-0.276,1.441-0.166,2.01,0.289l13.084,10.477c0.432,0.346,0.701,0.854,0.744,1.406s-0.145,1.096-0.518,1.504     c-2.224,2.434-3.961,5.475-5.162,9.038c-0.505,1.492-1.879,2.546-3.502,2.688C47.339,224.618,47.215,224.623,47.091,224.623z      M44.983,215.415c0.032,0.072,0.061,0.146,0.084,0.223c0.523,1.706,1.226,3.38,2.087,4.978c0.021-0.005,0.041-0.013,0.052-0.022     c1.104-3.304,2.652-6.257,4.6-8.779l-8.439-6.758C43.407,208.308,43.948,211.776,44.983,215.415z"/>
		</g>
		<g>
			<path class="st1" d="M19.091,202.623c-1.433,0-2.704-0.728-3.375-1.957c-0.976-1.788-1.777-3.662-2.386-5.576     c-0.044-0.094-0.081-0.191-0.111-0.293c-1.703-5.863-2.237-11.374-1.588-16.382c0.093-0.716,0.565-1.327,1.235-1.598     c0.668-0.269,1.434-0.159,1.998,0.294l13.267,10.623c0.436,0.349,0.706,0.863,0.745,1.42s-0.155,1.104-0.538,1.511     c-2.328,2.478-4.136,5.591-5.371,9.254c-0.505,1.491-1.879,2.545-3.502,2.687C19.339,202.618,19.215,202.623,19.091,202.623z      M16.983,193.416c0.032,0.072,0.061,0.146,0.084,0.222c0.523,1.706,1.226,3.38,2.087,4.978c0.021-0.005,0.041-0.013,0.052-0.022     c1.141-3.413,2.759-6.451,4.806-9.033l-8.648-6.925C15.361,186.007,15.902,189.617,16.983,193.416z"/>
		</g>
	</g>
	<g>
		<path class="st7" d="M164.873,66.278V54.373h-1.466c-0.632,0-1.144,0.512-1.144,1.144v0c0,3.604-2.921,6.525-6.525,6.525h-6.525    c-3.604,0-6.525-2.921-6.525-6.525v-6.525v-3.915v-2.61v-8.482l-58.073-8.483v6.09V37.9l29.281,4.593    c0.089,0.014,0.178,0.031,0.267,0.05l0,0c2.177,0.471,3.73,2.396,3.73,4.623v1.827v1.827c0,2.227-1.554,4.152-3.73,4.623    l-2.795,0.604v11.538c0,0.661,0.495,1.218,1.151,1.296l43.601,5.174C160.777,74.607,164.873,70.969,164.873,66.278z"/>
	</g>
	<g>
		<path class="st7" d="M164.873,66.278V54.373h-1.466c-0.632,0-1.144,0.512-1.144,1.144v0c0,3.604-2.921,6.525-6.525,6.525h-6.525    c-3.604,0-6.525-2.921-6.525-6.525v-6.525v-3.915v-2.61v-8.482l-58.073-8.483v6.09V37.9l29.281,4.593    c0.089,0.014,0.178,0.031,0.267,0.05l0,0c2.177,0.471,3.73,2.396,3.73,4.623v1.827v1.827c0,2.227-1.554,4.152-3.73,4.623    l-2.795,0.604v11.538c0,0.661,0.495,1.218,1.151,1.296l43.601,5.174C160.777,74.607,164.873,70.969,164.873,66.278z"/>
	</g>
	<g>
		<path class="st1" d="M157.041,76.108c-0.385,0-0.771-0.023-1.156-0.069l-43.602-5.173c-1.663-0.198-2.916-1.608-2.916-3.282    V56.046c0-0.942,0.657-1.756,1.577-1.955l2.795-0.604c1.248-0.27,2.153-1.392,2.153-2.668v-3.654c0-1.276-0.905-2.398-2.153-2.668    l-0.145-0.027l-29.289-4.594c-0.974-0.153-1.69-0.991-1.69-1.976V25.502c0-0.581,0.253-1.133,0.692-1.513    c0.438-0.379,1.017-0.549,1.597-0.466l58.072,8.482c0.982,0.144,1.711,0.986,1.711,1.979v21.533c0,2.495,2.03,4.525,4.525,4.525    h6.524c2.495,0,4.525-2.03,4.525-4.525c0-1.733,1.41-3.144,3.144-3.144h1.466c1.104,0,2,0.896,2,2v11.905    c0,2.807-1.203,5.485-3.302,7.349C161.763,75.233,159.434,76.108,157.041,76.108z M113.367,66.967l42.988,5.101    c1.655,0.191,3.313-0.325,4.559-1.431c1.244-1.105,1.958-2.694,1.958-4.359V60.18c-1.524,2.324-4.153,3.863-7.135,3.863h-6.524    c-4.701,0-8.525-3.824-8.525-8.525V35.714l-54.072-7.898v8.373l27.59,4.328c0.122,0.019,0.252,0.043,0.381,0.071    c3.074,0.665,5.307,3.431,5.307,6.578v3.654c0,3.146-2.232,5.913-5.308,6.578l-1.218,0.263V66.967z"/>
	</g>
	<g>
		<path class="st3" d="M142.688,64.322v-8.482v-2.61v-3.915v-6.525c0-3.604,2.921-6.525,6.525-6.525h6.525    c3.604,0,6.525,2.921,6.525,6.525v0c0,0.632,0.512,1.144,1.144,1.144h1.466V32.028c0-4.69-4.095-8.328-8.753-7.775l-43.601,5.174    c-0.657,0.078-1.151,0.635-1.151,1.296v10.485c0,0.614,0.429,1.146,1.029,1.276l1.783,0.386c2.166,0.468,3.713,2.385,3.713,4.601    v1.845v1.845c0,2.216-1.546,4.133-3.713,4.601l0,0c-0.1,0.022-0.201,0.04-0.302,0.056l-29.263,4.59v6.308v6.09L142.688,64.322z"/>
	</g>
	<g>
		<path class="st3" d="M142.688,64.322v-8.482v-2.61v-3.915v-6.525c0-3.604,2.921-6.525,6.525-6.525h6.525    c3.604,0,6.525,2.921,6.525,6.525v0c0,0.632,0.512,1.144,1.144,1.144h1.466V32.028c0-4.69-4.095-8.328-8.753-7.775l-43.601,5.174    c-0.657,0.078-1.151,0.635-1.151,1.296v10.485c0,0.614,0.429,1.146,1.029,1.276l1.783,0.386c2.166,0.468,3.713,2.385,3.713,4.601    v1.845v1.845c0,2.216-1.546,4.133-3.713,4.601l0,0c-0.1,0.022-0.201,0.04-0.302,0.056l-29.263,4.59v6.308v6.09L142.688,64.322z"/>
	</g>
	<g>
		<path class="st1" d="M84.615,74.805c-0.478,0-0.942-0.171-1.308-0.487c-0.439-0.38-0.692-0.932-0.692-1.513V60.407    c0-0.985,0.717-1.823,1.69-1.976l29.263-4.59c0.059-0.009,0.12-0.02,0.181-0.034c1.245-0.269,2.144-1.382,2.144-2.648V47.47    c0-1.266-0.898-2.379-2.136-2.646l-1.783-0.386c-1.51-0.326-2.606-1.685-2.606-3.23V30.723c0-1.674,1.254-3.085,2.916-3.282    l43.602-5.173c2.784-0.33,5.587,0.548,7.686,2.412c2.099,1.864,3.302,4.542,3.302,7.349v11.905c0,1.104-0.896,2-2,2h-1.466    c-1.733,0-3.144-1.411-3.144-3.144c0-2.495-2.03-4.525-4.525-4.525h-6.524c-2.495,0-4.525,2.03-4.525,4.525v21.532    c0,0.993-0.729,1.835-1.711,1.979l-58.072,8.483C84.808,74.798,84.711,74.805,84.615,74.805z M86.615,62.118v8.373l54.072-7.898    V42.79c0-4.701,3.824-8.525,8.525-8.525h6.524c2.981,0,5.61,1.539,7.135,3.863v-6.099c0-1.665-0.714-3.253-1.958-4.359    c-1.245-1.105-2.903-1.621-4.559-1.431l-42.988,5.102v9.306l1.235,0.268c3.065,0.662,5.29,3.419,5.29,6.556v3.689    c0,3.136-2.225,5.894-5.29,6.556c-0.131,0.028-0.271,0.055-0.411,0.077L86.615,62.118z M142.688,64.322h0.01H142.688z"/>
	</g>
	<g>
		<path class="st2" d="M8.08,77.76L8.08,77.76c-0.771-5.35,2.941-10.312,8.291-11.083l75.562-10.889    c2.14-0.308,4.125,1.176,4.433,3.317l1.675,11.625c0.308,2.14-1.176,4.125-3.317,4.433L19.164,86.051    C13.814,86.822,8.851,83.11,8.08,77.76z"/>
	</g>
	<g>
		<path class="st2" d="M8.08,19.77L8.08,19.77c-0.771,5.35,2.941,10.312,8.291,11.083l75.562,10.889    c2.14,0.308,4.125-1.176,4.433-3.317l1.675-11.625c0.308-2.14-1.176-4.125-3.317-4.433L19.164,11.479    C13.814,10.708,8.851,14.42,8.08,19.77z"/>
	</g>
	<g>
		<circle class="st5" cx="129.638" cy="49.153" r="5.872"/>
	</g>
	<g>
		<path class="st1" d="M17.761,88.152c-5.762,0-10.814-4.242-11.66-10.107c0,0,0,0,0,0c-0.927-6.433,3.554-12.421,9.986-13.348    l75.562-10.889c3.224-0.469,6.232,1.782,6.698,5.01l1.675,11.625c0.226,1.563-0.172,3.122-1.118,4.387s-2.329,2.086-3.893,2.311    L19.449,88.031C18.882,88.113,18.317,88.152,17.761,88.152z M10.06,77.474c0.612,4.251,4.578,7.209,8.819,6.598L94.44,73.183    c0.507-0.073,0.954-0.338,1.261-0.748c0.306-0.41,0.435-0.914,0.361-1.42L94.388,59.39c-0.151-1.044-1.109-1.771-2.169-1.622    L16.657,68.656C12.407,69.269,9.447,73.225,10.06,77.474L10.06,77.474z"/>
	</g>
	<g>
		<path class="st1" d="M92.496,43.783c-0.28,0-0.563-0.02-0.848-0.061L16.087,32.833c-6.433-0.927-10.913-6.915-9.986-13.348    c0,0,0,0,0,0c0.928-6.433,6.921-10.912,13.349-9.985l75.562,10.889c1.564,0.226,2.946,1.046,3.894,2.312    c0.945,1.265,1.343,2.823,1.117,4.387l-1.675,11.625C97.922,41.654,95.387,43.783,92.496,43.783z M10.06,20.055    c-0.612,4.25,2.348,8.207,6.598,8.819l75.562,10.889c1.062,0.152,2.018-0.578,2.169-1.623l1.675-11.625    c0.073-0.507-0.056-1.011-0.362-1.42c-0.306-0.41-0.754-0.675-1.26-0.749L18.879,13.458C14.63,12.852,10.673,15.806,10.06,20.055    L10.06,20.055z"/>
	</g>
</g>
</svg>
